<svg width="402" height="162" viewBox="0 0 402 162" fill="none" xmlns="http://www.w3.org/2000/svg">
<path d="M0 95.7959L45.5589 161.037L91.1178 95.7959L45.5589 122.726L0 95.7959Z" fill="#5A96FF"/>
<path fill-rule="evenodd" clip-rule="evenodd" d="M44.4094 29.7917C44.7417 31.2532 46.5913 31.2532 46.9236 29.7917C47.9157 25.4282 48.4693 20.5676 48.4693 15.4439C48.4693 10.3203 47.9157 5.45967 46.9236 1.09618C46.5913 -0.365394 44.7417 -0.365393 44.4094 1.09618C43.4173 5.45967 42.8637 10.3203 42.8637 15.4439C42.8637 20.5676 43.4173 25.4282 44.4094 29.7917Z" fill="#5A96FF"/>
<path fill-rule="evenodd" clip-rule="evenodd" d="M44.9147 47.7089V44.1123C44.9147 40.4141 43.8386 36.7958 41.8176 33.6986L35.4554 23.9483C34.4395 22.3914 33.9386 20.5546 34.0237 18.6975C34.0391 18.3605 33.587 18.2362 33.4281 18.5338L33.0559 19.2308C30.6458 23.7438 31.1357 29.2554 34.3041 33.2725L41.9151 42.9221C43.0334 44.3399 43.7912 46.0076 44.1237 47.7824C44.213 48.2589 44.9147 48.1937 44.9147 47.7089ZM45.4456 62.5658V63.5658C45.4456 64.2808 44.4612 64.4748 44.1899 63.8133C43.2695 61.5693 41.9113 59.531 40.1946 57.8175L28.5433 46.1879C24.9815 42.6328 23.7565 37.359 25.3867 32.598L25.9698 30.8947C26.0654 30.6155 26.4799 30.6955 26.4647 30.9902C26.3615 32.9908 27.1052 34.9424 28.5137 36.367L39.0656 47.0389C43.1531 51.173 45.4456 56.7521 45.4456 62.5658ZM44.9931 79.1678V77.9682C44.9931 71.9619 42.2416 66.2865 37.5261 62.5663L20.9744 49.508C19.3148 48.1988 18.4141 46.1506 18.5707 44.0426C18.5892 43.7936 18.2508 43.7013 18.1404 43.9253L17.687 44.845C15.3197 49.6469 16.7218 55.4545 21.0192 58.6474L38.2329 71.437C40.8968 73.4162 42.8737 76.1802 43.8858 79.3408C44.0832 79.9572 44.9931 79.8151 44.9931 79.1678ZM17.8453 64.4148L35.8903 77.2026C41.6047 81.2522 45.0008 87.8445 45.0008 94.8483C45.0008 95.7441 43.7732 96.0052 43.4193 95.1822C41.5587 90.8545 38.4184 87.1999 34.42 84.7091L16.7296 73.6888C10.4902 69.802 8.42185 61.6886 12.039 55.289L12.2631 54.8926C12.4694 54.5275 13.0263 54.674 13.0263 55.0934C13.0263 58.7981 14.8226 62.2727 17.8453 64.4148ZM8.77993 77.3238L35.697 94.628C41.4685 98.3384 44.9574 104.729 44.9574 111.59V113.113C44.9574 113.631 44.2447 113.772 44.0467 113.293C42.9618 110.669 41.0627 108.463 38.6291 106.999L8.88284 89.1126C2.58428 85.3252 0.480523 77.1903 4.15327 70.8242L4.69105 69.8921C4.84064 69.6328 5.23801 69.7579 5.21208 70.0561C4.96017 72.9531 6.33384 75.7513 8.77993 77.3238Z" fill="#5A96FF"/>
<path fill-rule="evenodd" clip-rule="evenodd" d="M47.0095 47.7089V44.1123C47.0095 40.4141 48.0856 36.7958 50.1066 33.6986L56.4688 23.9483C57.4847 22.3914 57.9856 20.5546 57.9005 18.6975C57.8851 18.3605 58.3372 18.2362 58.4962 18.5338L58.8684 19.2308C61.2785 23.7438 60.7885 29.2554 57.6201 33.2725L50.0091 42.9221C48.8909 44.3399 48.133 46.0076 47.8005 47.7824C47.7112 48.2589 47.0095 48.1937 47.0095 47.7089ZM46.4786 62.5658V63.5658C46.4786 64.2808 47.463 64.4748 47.7343 63.8133C48.6547 61.5693 50.0129 59.531 51.7296 57.8175L63.381 46.1879C66.9427 42.6328 68.1677 37.359 66.5376 32.598L65.9544 30.8947C65.8588 30.6155 65.4443 30.6955 65.4595 30.9902C65.5627 32.9908 64.819 34.9424 63.4105 36.367L52.8586 47.0389C48.7711 51.173 46.4786 56.7521 46.4786 62.5658ZM46.9312 79.1678V77.9682C46.9312 71.9619 49.6826 66.2865 54.3981 62.5663L70.9498 49.508C72.6094 48.1988 73.5102 46.1506 73.3535 44.0426C73.335 43.7936 73.6734 43.7013 73.7839 43.9253L74.2373 44.845C76.6045 49.6469 75.2024 55.4545 70.905 58.6474L53.6913 71.437C51.0274 73.4162 49.0506 76.1802 48.0384 79.3408C47.841 79.9572 46.9312 79.8151 46.9312 79.1678ZM74.079 64.4148L56.0339 77.2026C50.3195 81.2522 46.9234 87.8445 46.9234 94.8483C46.9234 95.7441 48.1511 96.0052 48.5049 95.1822C50.3655 90.8545 53.5059 87.1999 57.5042 84.7091L75.1946 73.6888C81.4341 69.802 83.5024 61.6886 79.8852 55.289L79.6612 54.8926C79.4548 54.5275 78.8979 54.674 78.8979 55.0934C78.8979 58.7981 77.1016 62.2727 74.079 64.4148ZM83.1443 77.3238L56.2272 94.628C50.4557 98.3384 46.9668 104.729 46.9668 111.59V113.113C46.9668 113.631 47.6796 113.772 47.8775 113.293C48.9624 110.669 50.8615 108.463 53.2951 106.999L83.0414 89.1126C89.3399 85.3252 91.4437 77.1903 87.771 70.8242L87.2332 69.8921C87.0836 69.6328 86.6862 69.7579 86.7121 70.0561C86.9641 72.9531 85.5904 75.7513 83.1443 77.3238Z" fill="#5A96FF"/>
<path d="M350.85 61.9839V65.0076C350.318 65.3088 349.718 65.4679 349.107 65.4694C347.893 65.5021 346.703 65.1245 345.73 64.3978C344.757 63.671 344.058 62.6374 343.745 61.464C341.564 63.7999 338.548 65.1788 335.355 65.2999C332.161 65.421 329.05 64.2745 326.698 62.1105C325.538 61.0413 324.601 59.7533 323.94 58.3205C323.279 56.8878 322.908 55.3385 322.848 53.7619C322.788 52.1853 323.04 50.6123 323.59 49.1334C324.14 47.6545 324.976 46.2989 326.052 45.1445C328.233 42.8086 331.248 41.4298 334.442 41.3087C337.635 41.1876 340.747 42.334 343.098 44.4981L343.396 44.787V41.7752H347.013V58.96C347.013 61.1065 348.167 61.9839 349.396 61.9839H350.85ZM343.417 53.3847C343.416 51.2815 342.632 49.2539 341.219 47.6961C339.806 46.1384 337.864 45.1619 335.77 44.9566C333.677 44.7512 331.582 45.3316 329.893 46.5849C328.204 47.8382 327.042 49.6748 326.632 51.7377C326.221 53.8006 326.593 55.9423 327.674 57.7464C328.756 59.5504 330.469 60.8879 332.482 61.4988C334.494 62.1097 336.662 61.9503 338.564 61.0516C340.465 60.1529 341.965 58.5792 342.77 56.6364C343.198 55.6055 343.417 54.5006 343.417 53.3847ZM355.409 30.0375H359.194V65.4694H355.409V30.0375ZM317.484 53.2358C317.489 55.6418 316.785 57.996 315.459 60.0036C314.133 62.0112 312.244 63.583 310.029 64.5221C307.822 65.4524 305.389 65.7035 303.039 65.2431C300.689 64.7828 298.53 63.6319 296.837 61.9377V64.9957H293.213V29.2183H296.837V44.51C298.53 42.8161 300.689 41.6653 303.039 41.2047C305.388 40.7441 307.822 40.9946 310.029 41.9241C312.248 42.8654 314.139 44.4411 315.465 46.4536C316.792 48.4661 317.494 50.8255 317.484 53.2358ZM313.872 53.2358C313.858 51.265 313.163 49.3597 311.904 47.8438C310.644 46.3279 308.899 45.2949 306.964 44.9206C305.029 44.5463 303.024 44.8538 301.29 45.7907C299.556 46.7276 298.201 48.2361 297.453 50.0598C296.706 51.8834 296.614 53.9096 297.192 55.7937C297.769 57.6779 298.982 59.3037 300.623 60.3948C302.265 61.4858 304.233 61.9747 306.194 61.7783C308.155 61.582 309.987 60.7124 311.38 59.3176C312.978 57.697 313.873 55.5119 313.872 53.2358ZM262.122 53.3847C262.118 50.3799 263.232 47.481 265.248 45.2521C267.263 43.0232 270.035 41.6235 273.025 41.3254C276.015 41.0273 279.009 41.852 281.425 43.6392C283.84 45.4263 285.505 48.0481 286.095 50.9945C286.684 53.941 286.157 57.0014 284.615 59.5805C283.073 62.1597 280.627 64.0731 277.753 64.9486C274.878 65.8242 271.781 65.5992 269.063 64.3175C266.345 63.0359 264.201 60.7891 263.048 58.0142C262.439 56.5469 262.124 54.9738 262.122 53.3847ZM282.769 53.3847C282.773 51.4172 282.096 49.5088 280.851 47.9849C279.606 46.461 277.872 45.4159 275.943 45.0276C274.014 44.6393 272.01 44.932 270.273 45.8556C268.536 46.7792 267.172 48.2766 266.415 50.0928C265.658 51.909 265.555 53.9314 266.122 55.8155C266.689 57.6995 267.892 59.3287 269.526 60.4252C271.159 61.5217 273.123 62.0177 275.081 61.8287C277.04 61.6398 278.872 60.7777 280.266 59.3891C281.861 57.7974 282.761 55.6384 282.769 53.3847ZM243.921 46.1947V47.2448C243.978 51.6142 242.445 55.8556 239.609 59.1801C236.773 62.5047 232.827 64.6862 228.503 65.319C224.18 65.8993 219.795 64.8734 216.179 62.4356C212.562 59.9979 209.966 56.3178 208.882 52.0933C207.741 47.8641 208.163 43.3651 210.071 39.4219C211.979 35.4787 215.245 32.3557 219.269 30.6259C223.284 28.9476 227.777 28.8099 231.888 30.2392C235.998 31.6685 239.436 34.5643 241.544 38.3716L238.393 40.159C236.797 37.2445 234.212 34.9955 231.105 33.8169C227.998 32.6384 224.572 32.6076 221.444 33.7301C218.3 34.8973 215.665 37.131 213.999 40.0417C212.332 42.9524 211.741 46.3555 212.326 49.6579C212.825 52.9687 214.493 55.9914 217.028 58.1786C219.563 60.3658 222.798 61.5728 226.146 61.5811C229.494 61.5894 232.735 60.3984 235.28 58.2238C237.826 56.0492 239.509 53.0347 240.025 49.7264H226.172V46.2646L243.921 46.1947ZM251.504 30.0375H255.289V65.4694H251.504V30.0375ZM202.212 30.0375V65.4694H194.537V51.1578H180.332V65.4694H172.612V30.0375H180.31V44.2329H194.54V30.0375H202.212ZM169.591 36.9625H160.879V65.4694H153.33V36.9625H144.559V30.0375H169.591V36.9625ZM128.816 36.8924V44.3491H140.359V51.2725H128.816V58.7203H142.285V65.5841H121.048V30.0375H142.289V36.8894L128.816 36.8924Z" fill="#201C1C"/>
<path d="M350.85 61.9839V65.0076C350.318 65.3088 349.718 65.4679 349.107 65.4694C347.893 65.5021 346.703 65.1245 345.73 64.3978C344.757 63.671 344.058 62.6374 343.745 61.464C341.564 63.7999 338.548 65.1788 335.355 65.2999C332.161 65.421 329.05 64.2745 326.698 62.1105C325.538 61.0413 324.601 59.7533 323.94 58.3205C323.279 56.8878 322.908 55.3385 322.848 53.7619C322.788 52.1853 323.04 50.6123 323.59 49.1334C324.14 47.6545 324.976 46.2989 326.052 45.1445C328.233 42.8086 331.248 41.4298 334.442 41.3087C337.635 41.1876 340.747 42.334 343.098 44.4981L343.396 44.787V41.7752H347.013V58.96C347.013 61.1065 348.167 61.9839 349.396 61.9839H350.85ZM343.417 53.3847C343.416 51.2815 342.632 49.2539 341.219 47.6961C339.806 46.1384 337.864 45.1619 335.77 44.9566C333.677 44.7512 331.582 45.3316 329.893 46.5849C328.204 47.8382 327.042 49.6748 326.632 51.7377C326.221 53.8006 326.593 55.9423 327.674 57.7464C328.756 59.5504 330.469 60.8879 332.482 61.4988C334.494 62.1097 336.662 61.9503 338.564 61.0516C340.465 60.1529 341.965 58.5792 342.77 56.6364C343.198 55.6055 343.417 54.5006 343.417 53.3847ZM355.409 30.0375H359.194V65.4694H355.409V30.0375ZM317.484 53.2358C317.489 55.6418 316.785 57.996 315.459 60.0036C314.133 62.0112 312.244 63.583 310.029 64.5221C307.822 65.4524 305.389 65.7035 303.039 65.2431C300.689 64.7828 298.53 63.6319 296.837 61.9377V64.9957H293.213V29.2183H296.837V44.51C298.53 42.8161 300.689 41.6653 303.039 41.2047C305.388 40.7441 307.822 40.9946 310.029 41.9241C312.248 42.8654 314.139 44.4411 315.465 46.4536C316.792 48.4661 317.494 50.8255 317.484 53.2358ZM313.872 53.2358C313.858 51.265 313.163 49.3597 311.904 47.8438C310.644 46.3279 308.899 45.2949 306.964 44.9206C305.029 44.5463 303.024 44.8538 301.29 45.7907C299.556 46.7276 298.201 48.2361 297.453 50.0598C296.706 51.8834 296.614 53.9096 297.192 55.7937C297.769 57.6779 298.982 59.3037 300.623 60.3948C302.265 61.4858 304.233 61.9747 306.194 61.7783C308.155 61.582 309.987 60.7124 311.38 59.3176C312.978 57.697 313.873 55.5119 313.872 53.2358ZM262.122 53.3847C262.118 50.3799 263.232 47.481 265.248 45.2521C267.263 43.0232 270.035 41.6235 273.025 41.3254C276.015 41.0273 279.009 41.852 281.425 43.6392C283.84 45.4263 285.505 48.0481 286.095 50.9945C286.684 53.941 286.157 57.0014 284.615 59.5805C283.073 62.1597 280.627 64.0731 277.753 64.9486C274.878 65.8242 271.781 65.5992 269.063 64.3175C266.345 63.0359 264.201 60.7891 263.048 58.0142C262.439 56.5469 262.124 54.9738 262.122 53.3847ZM282.769 53.3847C282.773 51.4172 282.096 49.5088 280.851 47.9849C279.606 46.461 277.872 45.4159 275.943 45.0276C274.014 44.6393 272.01 44.932 270.273 45.8556C268.536 46.7792 267.172 48.2766 266.415 50.0928C265.658 51.909 265.555 53.9314 266.122 55.8155C266.689 57.6995 267.892 59.3287 269.526 60.4252C271.159 61.5217 273.123 62.0177 275.081 61.8287C277.04 61.6398 278.872 60.7777 280.266 59.3891C281.861 57.7974 282.761 55.6384 282.769 53.3847ZM243.921 46.1947V47.2448C243.978 51.6142 242.445 55.8556 239.609 59.1801C236.773 62.5047 232.827 64.6862 228.503 65.319C224.18 65.8993 219.795 64.8734 216.179 62.4356C212.562 59.9979 209.966 56.3178 208.882 52.0933C207.741 47.8641 208.163 43.3651 210.071 39.4219C211.979 35.4787 215.245 32.3557 219.269 30.6259C223.284 28.9476 227.777 28.8099 231.888 30.2392C235.998 31.6685 239.436 34.5643 241.544 38.3716L238.393 40.159C236.797 37.2445 234.212 34.9955 231.105 33.8169C227.998 32.6384 224.572 32.6076 221.444 33.7301C218.3 34.8973 215.665 37.131 213.999 40.0417C212.332 42.9524 211.741 46.3555 212.326 49.6579C212.825 52.9687 214.493 55.9914 217.028 58.1786C219.563 60.3658 222.798 61.5728 226.146 61.5811C229.494 61.5894 232.735 60.3984 235.28 58.2238C237.826 56.0492 239.509 53.0347 240.025 49.7264H226.172V46.2646L243.921 46.1947ZM251.504 30.0375H255.289V65.4694H251.504V30.0375ZM202.212 30.0375V65.4694H194.537V51.1578H180.332V65.4694H172.612V30.0375H180.31V44.2329H194.54V30.0375H202.212ZM169.591 36.9625H160.879V65.4694H153.33V36.9625H144.559V30.0375H169.591V36.9625ZM128.816 36.8924V44.3491H140.359V51.2725H128.816V58.7203H142.285V65.5841H121.048V30.0375H142.289V36.8894L128.816 36.8924Z" fill="#201C1C"/>
<path d="M350.85 61.7695V64.7933C350.318 65.0945 349.718 65.2535 349.107 65.255C347.893 65.2877 346.703 64.9102 345.73 64.1834C344.757 63.4566 344.058 62.423 343.745 61.2496C341.564 63.5855 338.548 64.9644 335.355 65.0855C332.161 65.2066 329.05 64.0602 326.698 61.8961C325.538 60.8269 324.601 59.5389 323.94 58.1062C323.279 56.6734 322.908 55.1242 322.848 53.5475C322.788 51.9709 323.04 50.3979 323.59 48.919C324.14 47.4402 324.976 46.0846 326.052 44.9301C328.233 42.5942 331.248 41.2154 334.442 41.0943C337.635 40.9732 340.747 42.1197 343.098 44.2837L343.396 44.5727V41.5608H347.013V58.7457C347.013 60.8921 348.167 61.7695 349.396 61.7695H350.85ZM343.417 53.1704C343.416 51.0671 342.632 49.0395 341.219 47.4818C339.806 45.9241 337.864 44.9476 335.77 44.7422C333.677 44.5368 331.582 45.1172 329.893 46.3705C328.204 47.6238 327.042 49.4605 326.632 51.5234C326.221 53.5862 326.593 55.7279 327.674 57.532C328.756 59.3361 330.469 60.6736 332.482 61.2845C334.494 61.8954 336.662 61.7359 338.564 60.8372C340.465 59.9386 341.965 58.3649 342.77 56.4221C343.198 55.3912 343.417 54.2862 343.417 53.1704ZM355.409 29.8232H359.194V65.255H355.409V29.8232ZM317.484 53.0214C317.49 55.4275 316.785 57.7816 315.459 59.7892C314.133 61.7969 312.244 63.3686 310.029 64.3077C307.822 65.2381 305.389 65.4892 303.039 65.0288C300.689 64.5684 298.53 63.4175 296.837 61.7233V64.7813H293.213V29.0039H296.837V44.2956C298.53 42.6017 300.689 41.4509 303.039 40.9903C305.388 40.5297 307.822 40.7802 310.029 41.7098C312.248 42.651 314.139 44.2268 315.465 46.2392C316.792 48.2517 317.494 50.6112 317.484 53.0214ZM313.872 53.0214C313.858 51.0507 313.163 49.1453 311.904 47.6294C310.644 46.1135 308.899 45.0806 306.964 44.7063C305.029 44.332 303.024 44.6394 301.29 45.5764C299.556 46.5133 298.201 48.0218 297.453 49.8454C296.706 51.6691 296.614 53.6952 297.192 55.5794C297.77 57.4635 298.982 59.0894 300.623 60.1804C302.265 61.2714 304.233 61.7604 306.194 61.564C308.155 61.3676 309.987 60.4981 311.38 59.1032C312.978 57.4826 313.873 55.2975 313.872 53.0214ZM262.122 53.1704C262.118 50.1655 263.232 47.2667 265.248 45.0378C267.263 42.8089 270.035 41.4092 273.025 41.1111C276.015 40.8129 279.009 41.6377 281.425 43.4248C283.84 45.2119 285.505 47.8337 286.095 50.7802C286.684 53.7266 286.157 56.787 284.615 59.3662C283.073 61.9453 280.627 63.8587 277.753 64.7343C274.878 65.6098 271.781 65.3849 269.063 64.1032C266.345 62.8215 264.201 60.5747 263.048 57.7999C262.439 56.3325 262.124 54.7594 262.122 53.1704ZM282.769 53.1704C282.773 51.2028 282.096 49.2944 280.851 47.7705C279.606 46.2467 277.872 45.2015 275.943 44.8133C274.014 44.425 272.01 44.7176 270.273 45.6412C268.536 46.5649 267.172 48.0623 266.415 49.8784C265.658 51.6946 265.555 53.7171 266.122 55.6011C266.689 57.4852 267.892 59.1143 269.526 60.2108C271.159 61.3073 273.123 61.8033 275.081 61.6144C277.04 61.4255 278.872 60.5633 280.266 59.1747C281.861 57.583 282.761 55.424 282.769 53.1704ZM243.921 45.9803V47.0304C243.978 51.3999 242.445 55.6412 239.609 58.9658C236.773 62.2903 232.827 64.4718 228.503 65.1046C224.18 65.685 219.795 64.659 216.179 62.2213C212.562 59.7835 209.966 56.1035 208.882 51.8789C207.741 47.6497 208.163 43.1507 210.071 39.2075C211.979 35.2643 215.245 32.1414 219.269 30.4116C223.284 28.7333 227.777 28.5956 231.888 30.0248C235.998 31.4541 239.436 34.3499 241.544 38.1572L238.393 39.9447C236.797 37.0301 234.212 34.7812 231.105 33.6026C227.998 32.424 224.572 32.3932 221.444 33.5158C218.3 34.683 215.665 36.9166 213.999 39.8273C212.332 42.7381 211.741 46.1412 212.326 49.4435C212.825 52.7543 214.493 55.7771 217.028 57.9643C219.563 60.1515 222.798 61.3584 226.146 61.3667C229.494 61.375 232.735 60.1841 235.28 58.0094C237.826 55.8348 239.509 52.8203 240.025 49.512H226.172V46.0503L243.921 45.9803ZM251.504 29.8232H255.289V65.255H251.504V29.8232ZM202.212 29.8232V65.255H194.537V50.9435H180.332V65.255H172.612V29.8232H180.31V44.0186H194.54V29.8232H202.212ZM169.591 36.7481H160.879V65.255H153.33V36.7481H144.559V29.8232H169.591V36.7481ZM128.816 36.6781V44.1347H140.359V51.0582H128.816V58.5059H142.285V65.3697H121.048V29.8232H142.289V36.6751L128.816 36.6781Z" fill="#201C1C"/>
<path d="M158.54 77.5728C159.361 78.7452 159.771 80.5468 159.771 82.9776C159.771 85.3797 159.686 87.3386 159.516 88.8543C159.375 90.3413 159.148 91.7855 158.837 93.1867C158.158 96.3324 157.209 98.7059 155.992 100.307C154.945 94.7881 153.586 90.8418 151.916 88.4682C150.161 86.0661 147.868 84.865 145.038 84.865C142.235 84.865 140.042 85.4083 138.457 86.495C136.871 87.5817 135.654 89.0116 134.805 90.7846C133.39 93.7301 132.682 98.0768 132.682 103.825C132.682 109.544 133.319 114.792 134.593 119.567C135.895 124.315 137.735 128.404 140.112 131.836C145.123 139.128 151.647 142.774 159.686 142.774C159.573 144.061 158.908 145.176 157.691 146.12C157.323 146.406 156.926 146.577 156.502 146.635C146.227 146.635 137.848 142.817 131.366 135.181C124.488 127.06 121.048 115.993 121.048 101.98C121.048 94.6595 123.171 89.1545 127.417 85.4655C131.182 82.2055 136.334 80.5754 142.872 80.5754L149.963 80.6612C153.303 80.6612 155.652 80.1751 157.011 79.2028C157.577 78.7738 158.087 78.2305 158.54 77.5728Z" fill="#201C1C"/>
<path d="M196.795 146.206C197.163 144.404 197.347 142.974 197.347 141.916C197.347 140.829 197.319 140.014 197.262 139.471C197.234 138.928 197.177 138.356 197.093 137.755C197.036 137.126 196.951 136.44 196.838 135.696C196.753 134.924 196.668 134.038 196.583 133.037C195.932 126.202 193.625 120.583 189.662 116.179C187.907 114.234 186.011 112.761 183.973 111.76C181.935 110.731 180.25 110.216 178.92 110.216C177.618 110.216 176.613 110.302 175.905 110.474C174.32 115.278 173.528 120.297 173.528 125.53C173.528 130.163 173.768 133.623 174.25 135.911C175.014 139.342 176.189 142.788 177.774 146.248H165.078C165.758 144.533 166.097 140.929 166.097 135.439C166.097 129.92 166.508 124.772 167.329 119.996C168.15 115.192 169.211 110.917 170.513 107.171C171.844 103.424 173.315 100.15 174.929 97.3476C176.571 94.5165 178.198 92.0571 179.812 89.9696C181.453 87.8534 182.996 86.0518 184.44 84.5647C185.883 83.0491 187.086 81.7193 188.049 80.5754H201.423C200.206 81.9767 199.598 83.9356 199.598 86.4521C199.598 87.596 199.782 89.4691 200.15 92.0714L201.211 99.8784C205.089 126.874 208.556 142.316 211.614 146.206H196.795ZM177.646 105.927C178.75 105.498 179.911 105.283 181.128 105.283C182.345 105.283 183.435 105.369 184.397 105.541C185.388 105.712 186.365 105.998 187.327 106.399C189.393 107.199 191.12 108.472 192.507 110.216C191.12 102.867 190.271 98.3771 189.959 96.747L188.473 89.2403L186.053 92.1572C182.656 96.2752 179.854 100.865 177.646 105.927Z" fill="#201C1C"/>
<path d="M226.856 99.4924C226.8 102.466 226.771 105.855 226.771 109.659C226.771 115.063 226.87 121.255 227.069 128.232C227.267 135.181 227.422 139.142 227.536 140.114C227.649 141.058 227.79 141.887 227.96 142.602C228.243 143.775 228.682 144.976 229.277 146.206H217.897C218.747 144.461 219.256 142.76 219.426 141.101C219.624 139.414 219.78 137.741 219.893 136.082C220.119 132.708 220.233 128.175 220.233 122.484C220.233 115.592 220.119 109.301 219.893 103.61L219.426 91.8141C219.256 87.4673 218.577 84.3788 217.388 82.5486C216.907 81.8623 216.312 81.2046 215.605 80.5754H228.809C230.48 84.4646 232.249 88.3252 234.117 92.1572L239.891 103.567L252.289 126.602C252.318 124.801 252.332 122.87 252.332 120.811V114.12C252.332 99.8212 251.468 89.4977 249.742 83.1492C249.402 81.9767 249.034 81.1188 248.638 80.5754L261.418 80.5325C260.003 83.3922 259.111 91.4423 258.743 104.683C258.686 106.742 258.658 108.715 258.658 110.602L258.701 114.206V131.707C258.701 139.113 258.757 143.946 258.87 146.206H251.992L239.679 123.042L226.856 99.4924Z" fill="#201C1C"/>
<path d="M280.61 99.4924C280.553 102.466 280.525 105.855 280.525 109.659C280.525 115.063 280.624 121.255 280.822 128.232C281.02 135.181 281.176 139.142 281.289 140.114C281.402 141.058 281.544 141.887 281.713 142.602C281.997 143.775 282.435 144.976 283.03 146.206H271.651C272.5 144.461 273.009 142.76 273.179 141.101C273.377 139.414 273.533 137.741 273.646 136.082C273.873 132.708 273.986 128.175 273.986 122.484C273.986 115.592 273.873 109.301 273.646 103.61L273.179 91.8141C273.009 87.4673 272.33 84.3788 271.141 82.5486C270.66 81.8623 270.066 81.2046 269.358 80.5754H282.563C284.233 84.4646 286.002 88.3252 287.87 92.1572L293.644 103.567L306.042 126.602C306.071 124.801 306.085 122.87 306.085 120.811V114.12C306.085 99.8212 305.222 89.4977 303.495 83.1492C303.155 81.9767 302.787 81.1188 302.391 80.5754L315.171 80.5325C313.756 83.3922 312.864 91.4423 312.496 104.683C312.44 106.742 312.411 108.715 312.411 110.602L312.454 114.206V131.707C312.454 139.113 312.51 143.946 312.624 146.206H305.745L293.432 123.042L280.61 99.4924Z" fill="#201C1C"/>
<path d="M357.758 130.334C358.522 131.392 358.904 132.922 358.904 134.924C358.904 136.926 358.819 138.527 358.649 139.728C358.479 140.901 358.211 141.973 357.843 142.945C356.993 145.119 355.875 146.206 354.488 146.206H320.096C322.276 145.033 323.72 143.903 324.427 142.817C325.758 140.786 326.423 138.213 326.423 135.096C326.395 127.46 326.38 120.554 326.38 114.377V91.8141C326.38 87.5531 325.715 84.4646 324.385 82.5486C323.875 81.8623 323.267 81.2046 322.559 80.5754H354.488C356.413 81.2618 357.729 83.6639 358.437 87.7819C358.635 88.9258 358.734 90.041 358.734 91.1277C358.734 93.3583 358.409 95.1313 357.758 96.4468L355.465 91.8141C353.936 88.7828 351.743 86.7524 348.884 85.7229C347.299 85.151 345.515 84.865 343.534 84.865C341.552 84.865 340.137 84.9365 339.288 85.0795C338.439 85.1939 337.788 85.4941 337.335 85.9803C336.599 86.8096 336.231 88.3967 336.231 90.7417C336.231 93.058 336.288 94.6738 336.401 95.5889C336.514 96.4754 336.783 97.2046 337.207 97.7765C338.085 98.8918 339.939 99.4495 342.77 99.4495H356.102C355.451 101.108 354.786 102.281 354.106 102.967C352.747 104.34 350.908 105.026 348.586 105.026C347.681 105.026 346.817 104.926 345.996 104.726C344.468 104.354 343.123 104.168 341.963 104.168C340.802 104.168 339.84 104.282 339.076 104.511C338.34 104.711 337.759 105.04 337.335 105.498C336.599 106.298 336.231 107.743 336.231 109.83V130.291C336.231 135.668 336.528 138.856 337.123 139.857C337.717 140.858 338.439 141.458 339.288 141.659C340.137 141.83 341.552 141.916 343.534 141.916C345.515 141.916 347.313 141.63 348.926 141.058C350.54 140.486 351.884 139.685 352.96 138.656C354.064 137.626 354.969 136.411 355.677 135.01C356.385 133.58 357.078 132.021 357.758 130.334Z" fill="#201C1C"/>
<path d="M375.59 123.471C375.222 126.445 375.038 128.819 375.038 130.592C375.038 132.336 375.251 133.952 375.675 135.439C376.1 136.926 376.709 138.213 377.501 139.299C379.199 141.616 381.351 142.774 383.955 142.774C388.937 142.774 391.428 140 391.428 134.452C391.428 129.991 388.866 125.258 383.743 120.254L379.327 115.921C375.449 112.147 372.802 109.115 371.387 106.827C368.585 102.309 367.184 97.8194 367.184 93.3583C367.184 89.7265 368.344 86.6809 370.665 84.2216C373.467 81.2189 377.501 79.7175 382.766 79.7175C384.832 79.7175 386.389 79.8176 387.437 80.0178C389.39 80.3896 390.692 80.5754 391.343 80.5754C392.985 80.5754 394.258 80.0607 395.164 79.0312C395.504 78.6594 395.872 78.1733 396.268 77.5728C398.334 78.7452 399.368 83.0491 399.368 90.4843C399.368 95.2314 398.901 98.7345 397.966 100.994C397.655 101.766 397.301 102.252 396.905 102.452C396.452 98.134 395.065 94.2734 392.744 90.8704C390.027 86.8668 386.885 84.865 383.318 84.865C380.261 84.865 378.379 86.2805 377.671 89.1116C377.473 89.9124 377.374 90.9133 377.374 92.1143C377.374 93.2868 377.728 94.6309 378.435 96.1465C379.143 97.6621 380.063 99.1778 381.195 100.693C382.356 102.18 383.686 103.682 385.186 105.197C389.715 109.887 392.716 113.062 394.188 114.72C395.688 116.379 397.018 118.095 398.179 119.868C400.726 123.843 402 127.689 402 131.407C402 135.896 400.273 139.614 396.82 142.559C393.253 145.562 388.668 147.063 383.063 147.063C378.421 147.063 374.43 145.891 371.09 143.546C367.41 140.972 365.57 137.569 365.57 133.337C366.674 129.362 369.08 126.445 372.788 124.586C373.779 124.071 374.713 123.7 375.59 123.471Z" fill="#201C1C"/>
</svg>
