<svg xmlns="http://www.w3.org/2000/svg" xmlns:xlink="http://www.w3.org/1999/xlink" width="500" zoomAndPan="magnify" viewBox="0 0 375 374.999991" height="500" preserveAspectRatio="xMidYMid meet" version="1.0"><defs><g/></defs><rect x="-37.5" width="450" fill="#ffffff" y="-37.499999" height="449.999989" fill-opacity="1"/><rect x="-37.5" width="450" fill="#ffffff" y="-37.499999" height="449.999989" fill-opacity="1"/><rect x="-37.5" width="450" fill="#000000" y="-37.499999" height="449.999989" fill-opacity="1"/><g fill="#ffffff" fill-opacity="1"><g transform="translate(48.328126, 230.999985)"><g><path d="M 117.199219 -128.621094 L 79.070312 -73.972656 L 40.765625 -128.621094 C 40.0625 -129.675781 38.832031 -129.851562 37.953125 -129.148438 C 37.074219 -128.621094 36.722656 -127.214844 37.425781 -126.335938 L 77.136719 -69.230469 L 77.664062 -68.703125 C 78.894531 -68 80.125 -68.351562 80.652344 -69.230469 L 120.535156 -126.335938 C 121.0625 -127.214844 120.886719 -128.621094 120.011719 -129.148438 C 119.132812 -129.851562 117.726562 -129.675781 117.199219 -128.621094 Z M 18.273438 0 L 18.273438 -127.566406 C 18.273438 -128.621094 17.21875 -129.5 15.988281 -129.5 C 14.933594 -129.5 14.058594 -128.621094 14.058594 -127.566406 L 14.058594 0 C 14.058594 1.054688 14.933594 1.933594 15.988281 1.933594 C 17.21875 1.933594 18.273438 1.054688 18.273438 0 Z M 143.90625 0 L 143.90625 -127.566406 C 143.90625 -128.621094 143.027344 -129.5 141.796875 -129.5 C 140.742188 -129.5 139.863281 -128.621094 139.863281 -127.566406 L 139.863281 0 C 139.863281 1.054688 140.742188 1.933594 141.796875 1.933594 C 143.027344 1.933594 143.90625 1.054688 143.90625 0 Z M 118.429688 0 L 118.429688 -79.421875 C 118.429688 -81.53125 115.96875 -82.40625 114.738281 -80.476562 L 79.070312 -29.519531 L 43.398438 -80.652344 C 42.171875 -82.230469 39.535156 -81.53125 39.535156 -79.421875 L 39.535156 0 C 39.535156 1.054688 40.414062 1.933594 41.46875 1.933594 C 42.875 1.933594 43.75 1.054688 43.75 0 L 43.75 -72.917969 L 77.136719 -24.597656 L 77.664062 -24.074219 C 78.894531 -23.546875 80.125 -23.722656 80.652344 -24.597656 L 114.386719 -72.917969 L 114.386719 0 C 114.386719 1.054688 115.265625 1.933594 116.496094 1.933594 C 117.550781 1.933594 118.429688 1.054688 118.429688 0 Z M 118.429688 0 "/></g></g></g><g fill="#ffffff" fill-opacity="1"><g transform="translate(206.457366, 230.999985)"><g><path d="M 18.097656 0 L 18.097656 -123.523438 L 65.363281 -123.523438 C 85.042969 -123.523438 100.507812 -107.359375 100.507812 -87.855469 C 100.507812 -68.527344 85.042969 -52.363281 65.363281 -52.363281 C 64.308594 -52.363281 63.429688 -51.484375 63.429688 -50.253906 C 63.429688 -49.726562 63.605469 -49.199219 63.957031 -48.847656 L 102.613281 1.054688 C 103.492188 2.109375 104.722656 2.285156 105.601562 1.40625 C 106.480469 0.878906 106.65625 -0.351562 105.953125 -1.230469 L 69.582031 -48.320312 C 89.613281 -50.429688 104.722656 -67.824219 104.722656 -87.855469 C 104.722656 -109.644531 87.328125 -127.742188 65.363281 -127.742188 L 15.988281 -127.742188 C 14.933594 -127.742188 14.058594 -126.6875 14.058594 -125.632812 L 14.058594 0 C 14.058594 1.054688 14.933594 2.109375 15.988281 2.109375 C 17.21875 2.109375 18.097656 1.054688 18.097656 0 Z M 56.226562 -73.445312 L 63.253906 -73.445312 C 71.515625 -73.445312 78.191406 -79.597656 78.191406 -87.855469 C 78.191406 -96.289062 71.515625 -102.4375 63.253906 -102.4375 L 41.117188 -102.4375 C 38.480469 -102.4375 38.480469 -98.398438 41.117188 -98.398438 L 63.253906 -98.398438 C 69.230469 -98.398438 74.148438 -94.003906 74.148438 -87.855469 C 74.148438 -81.878906 69.230469 -77.3125 63.253906 -77.3125 L 56.226562 -77.3125 C 54.996094 -77.3125 54.117188 -76.433594 54.117188 -75.378906 C 54.117188 -74.324219 54.996094 -73.445312 56.226562 -73.445312 Z M 75.378906 -1.230469 L 42.699219 -44.804688 C 41.996094 -45.683594 40.765625 -45.859375 39.886719 -45.332031 C 39.359375 -44.804688 39.007812 -44.101562 39.183594 -43.574219 L 39.183594 0 C 39.183594 1.054688 40.0625 2.109375 41.117188 2.109375 C 42.171875 2.109375 43.226562 1.054688 43.226562 0 L 43.226562 -37.601562 L 72.042969 1.054688 C 72.742188 2.109375 74.148438 2.285156 75.027344 1.582031 C 75.90625 0.878906 76.082031 -0.351562 75.378906 -1.230469 Z M 75.378906 -1.230469 "/></g></g></g><g fill="#ffffff" fill-opacity="1"><g transform="translate(63.140745, 273.336371)"><g><path d="M 26.421875 -9.203125 C 26.421875 -10.066406 26.347656 -10.785156 26.203125 -11.359375 C 26.054688 -11.941406 25.832031 -12.40625 25.53125 -12.75 C 25.238281 -13.101562 24.875 -13.347656 24.4375 -13.484375 C 24 -13.617188 23.476562 -13.6875 22.875 -13.6875 C 21.269531 -13.6875 19.9375 -13.359375 18.875 -12.703125 C 17.8125 -12.054688 16.929688 -11.160156 16.234375 -10.015625 L 16.234375 -0.984375 C 16.234375 -0.753906 16.207031 -0.578125 16.15625 -0.453125 C 16.113281 -0.328125 16.054688 -0.226562 15.984375 -0.15625 C 15.910156 -0.09375 15.832031 -0.0507812 15.75 -0.03125 C 15.664062 -0.0078125 15.585938 0 15.515625 0 C 15.429688 0 15.335938 -0.00390625 15.234375 -0.015625 C 15.140625 -0.0234375 15.054688 -0.0625 14.984375 -0.125 C 14.910156 -0.1875 14.847656 -0.285156 14.796875 -0.421875 C 14.742188 -0.554688 14.71875 -0.742188 14.71875 -0.984375 L 14.71875 -10.015625 C 14.71875 -11.160156 14.453125 -12.054688 13.921875 -12.703125 C 13.390625 -13.359375 12.535156 -13.6875 11.359375 -13.6875 C 10.460938 -13.6875 9.628906 -13.585938 8.859375 -13.390625 C 8.097656 -13.191406 7.421875 -12.921875 6.828125 -12.578125 C 6.234375 -12.234375 5.734375 -11.832031 5.328125 -11.375 C 4.921875 -10.914062 4.644531 -10.4375 4.5 -9.9375 L 4.5 -0.984375 C 4.5 -0.535156 4.425781 -0.257812 4.28125 -0.15625 C 4.132812 -0.0507812 3.988281 0 3.84375 0 C 3.75 0 3.648438 -0.00390625 3.546875 -0.015625 C 3.453125 -0.0234375 3.363281 -0.0625 3.28125 -0.125 C 3.195312 -0.1875 3.128906 -0.285156 3.078125 -0.421875 C 3.023438 -0.554688 3 -0.742188 3 -0.984375 L 3 -13.5 C 3 -13.90625 3.078125 -14.160156 3.234375 -14.265625 C 3.398438 -14.367188 3.578125 -14.421875 3.765625 -14.421875 C 3.984375 -14.421875 4.15625 -14.367188 4.28125 -14.265625 C 4.414062 -14.160156 4.484375 -13.90625 4.484375 -13.5 L 4.484375 -11.1875 C 4.679688 -11.75 4.992188 -12.253906 5.421875 -12.703125 C 5.859375 -13.160156 6.375 -13.539062 6.96875 -13.84375 C 7.570312 -14.15625 8.242188 -14.390625 8.984375 -14.546875 C 9.722656 -14.710938 10.5 -14.796875 11.3125 -14.796875 C 12.269531 -14.796875 13.039062 -14.664062 13.625 -14.40625 C 14.207031 -14.15625 14.660156 -13.84375 14.984375 -13.46875 C 15.316406 -13.101562 15.546875 -12.71875 15.671875 -12.3125 C 15.804688 -11.914062 15.90625 -11.570312 15.96875 -11.28125 C 16.195312 -11.664062 16.5 -12.066406 16.875 -12.484375 C 17.257812 -12.898438 17.726562 -13.28125 18.28125 -13.625 C 18.84375 -13.96875 19.5 -14.25 20.25 -14.46875 C 21.007812 -14.6875 21.875 -14.796875 22.84375 -14.796875 C 24.570312 -14.796875 25.847656 -14.351562 26.671875 -13.46875 C 27.503906 -12.582031 27.921875 -11.160156 27.921875 -9.203125 L 27.921875 -0.984375 C 27.921875 -0.753906 27.894531 -0.578125 27.84375 -0.453125 C 27.789062 -0.328125 27.726562 -0.226562 27.65625 -0.15625 C 27.59375 -0.09375 27.515625 -0.0507812 27.421875 -0.03125 C 27.335938 -0.0078125 27.257812 0 27.1875 0 C 27.082031 0 26.988281 -0.00390625 26.90625 -0.015625 C 26.820312 -0.0234375 26.738281 -0.0625 26.65625 -0.125 C 26.582031 -0.1875 26.523438 -0.285156 26.484375 -0.421875 C 26.441406 -0.554688 26.421875 -0.742188 26.421875 -0.984375 Z M 26.421875 -9.203125 "/></g></g></g><g fill="#ffffff" fill-opacity="1"><g transform="translate(93.835391, 273.336371)"><g><path d="M 4.03125 -4.21875 C 4.03125 -3.613281 4.179688 -3.101562 4.484375 -2.6875 C 4.796875 -2.28125 5.226562 -1.941406 5.78125 -1.671875 C 6.332031 -1.410156 6.988281 -1.21875 7.75 -1.09375 C 8.507812 -0.976562 9.34375 -0.921875 10.25 -0.921875 C 11.351562 -0.921875 12.332031 -1 13.1875 -1.15625 C 14.039062 -1.3125 14.785156 -1.507812 15.421875 -1.75 C 16.054688 -1.988281 16.59375 -2.25 17.03125 -2.53125 C 17.476562 -2.8125 17.84375 -3.085938 18.125 -3.359375 L 18.125 -7.140625 C 16.875 -7.316406 15.578125 -7.484375 14.234375 -7.640625 C 12.890625 -7.796875 11.535156 -7.875 10.171875 -7.875 C 9.203125 -7.875 8.335938 -7.816406 7.578125 -7.703125 C 6.816406 -7.585938 6.171875 -7.390625 5.640625 -7.109375 C 5.117188 -6.835938 4.71875 -6.46875 4.4375 -6 C 4.164062 -5.53125 4.03125 -4.9375 4.03125 -4.21875 Z M 12.03125 -13.6875 C 10.820312 -13.6875 9.789062 -13.65625 8.9375 -13.59375 C 8.082031 -13.53125 7.351562 -13.445312 6.75 -13.34375 C 6.144531 -13.25 5.632812 -13.144531 5.21875 -13.03125 C 4.800781 -12.914062 4.4375 -12.800781 4.125 -12.6875 C 3.96875 -12.6875 3.828125 -12.757812 3.703125 -12.90625 C 3.578125 -13.0625 3.515625 -13.226562 3.515625 -13.40625 C 3.515625 -13.570312 3.59375 -13.691406 3.75 -13.765625 C 3.84375 -13.816406 4.078125 -13.894531 4.453125 -14 C 4.828125 -14.113281 5.347656 -14.226562 6.015625 -14.34375 C 6.679688 -14.46875 7.515625 -14.570312 8.515625 -14.65625 C 9.515625 -14.75 10.691406 -14.796875 12.046875 -14.796875 C 12.691406 -14.796875 13.328125 -14.753906 13.953125 -14.671875 C 14.578125 -14.597656 15.164062 -14.453125 15.71875 -14.234375 C 16.28125 -14.023438 16.800781 -13.726562 17.28125 -13.34375 C 17.769531 -12.96875 18.1875 -12.484375 18.53125 -11.890625 C 18.882812 -11.296875 19.160156 -10.570312 19.359375 -9.71875 C 19.554688 -8.875 19.65625 -7.878906 19.65625 -6.734375 L 19.65625 -1.3125 C 19.65625 -1.164062 19.648438 -1.015625 19.640625 -0.859375 C 19.628906 -0.710938 19.59375 -0.570312 19.53125 -0.4375 C 19.476562 -0.3125 19.398438 -0.207031 19.296875 -0.125 C 19.203125 -0.0390625 19.066406 0 18.890625 0 C 18.597656 0 18.394531 -0.128906 18.28125 -0.390625 C 18.175781 -0.660156 18.125 -0.992188 18.125 -1.390625 L 18.125 -2.6875 C 17.875 -2.375 17.546875 -2.046875 17.140625 -1.703125 C 16.742188 -1.367188 16.238281 -1.0625 15.625 -0.78125 C 15.007812 -0.5 14.273438 -0.265625 13.421875 -0.078125 C 12.566406 0.0976562 11.554688 0.1875 10.390625 0.1875 C 9.296875 0.1875 8.269531 0.109375 7.3125 -0.046875 C 6.351562 -0.210938 5.519531 -0.472656 4.8125 -0.828125 C 4.101562 -1.179688 3.539062 -1.632812 3.125 -2.1875 C 2.71875 -2.75 2.515625 -3.425781 2.515625 -4.21875 C 2.515625 -5.132812 2.707031 -5.894531 3.09375 -6.5 C 3.476562 -7.113281 4.007812 -7.601562 4.6875 -7.96875 C 5.363281 -8.34375 6.15625 -8.601562 7.0625 -8.75 C 7.976562 -8.90625 8.960938 -8.984375 10.015625 -8.984375 C 10.804688 -8.984375 11.597656 -8.953125 12.390625 -8.890625 C 13.191406 -8.835938 13.945312 -8.753906 14.65625 -8.640625 C 15.375 -8.535156 16.03125 -8.40625 16.625 -8.25 C 17.226562 -8.09375 17.726562 -7.910156 18.125 -7.703125 C 18.125 -8.984375 17.953125 -10.007812 17.609375 -10.78125 C 17.273438 -11.5625 16.828125 -12.164062 16.265625 -12.59375 C 15.703125 -13.03125 15.050781 -13.320312 14.3125 -13.46875 C 13.582031 -13.613281 12.820312 -13.6875 12.03125 -13.6875 Z M 12.03125 -13.6875 "/></g></g></g><g fill="#ffffff" fill-opacity="1"><g transform="translate(116.263208, 273.336371)"><g><path d="M 14.078125 -14.34375 C 14.222656 -14.3125 14.328125 -14.238281 14.390625 -14.125 C 14.453125 -14.019531 14.484375 -13.90625 14.484375 -13.78125 C 14.484375 -13.613281 14.425781 -13.460938 14.3125 -13.328125 C 14.207031 -13.191406 14.050781 -13.125 13.84375 -13.125 C 13.78125 -13.125 13.738281 -13.125 13.71875 -13.125 C 13.707031 -13.132812 13.671875 -13.144531 13.609375 -13.15625 C 13.117188 -13.300781 12.648438 -13.410156 12.203125 -13.484375 C 11.765625 -13.554688 11.28125 -13.59375 10.75 -13.59375 C 10.007812 -13.59375 9.300781 -13.519531 8.625 -13.375 C 7.957031 -13.226562 7.347656 -13.007812 6.796875 -12.71875 C 6.253906 -12.425781 5.78125 -12.050781 5.375 -11.59375 C 4.976562 -11.132812 4.679688 -10.597656 4.484375 -9.984375 L 4.484375 -1.3125 C 4.484375 -0.988281 4.4375 -0.6875 4.34375 -0.40625 C 4.257812 -0.132812 4.0625 0 3.75 0 C 3.570312 0 3.425781 -0.0351562 3.3125 -0.109375 C 3.207031 -0.179688 3.128906 -0.28125 3.078125 -0.40625 C 3.035156 -0.539062 3.003906 -0.6875 2.984375 -0.84375 C 2.972656 -1 2.96875 -1.15625 2.96875 -1.3125 L 2.96875 -13.375 C 2.96875 -13.65625 3.019531 -13.898438 3.125 -14.109375 C 3.226562 -14.316406 3.460938 -14.421875 3.828125 -14.421875 C 4.097656 -14.421875 4.273438 -14.320312 4.359375 -14.125 C 4.441406 -13.925781 4.484375 -13.675781 4.484375 -13.375 L 4.484375 -11.1875 C 4.679688 -11.945312 5.023438 -12.566406 5.515625 -13.046875 C 6.015625 -13.523438 6.566406 -13.890625 7.171875 -14.140625 C 7.785156 -14.398438 8.410156 -14.570312 9.046875 -14.65625 C 9.691406 -14.75 10.257812 -14.796875 10.75 -14.796875 C 11.226562 -14.796875 11.640625 -14.78125 11.984375 -14.75 C 12.328125 -14.71875 12.625 -14.679688 12.875 -14.640625 C 13.125 -14.597656 13.34375 -14.550781 13.53125 -14.5 C 13.726562 -14.445312 13.910156 -14.394531 14.078125 -14.34375 Z M 14.078125 -14.34375 "/></g></g></g><g fill="#ffffff" fill-opacity="1"><g transform="translate(131.497555, 273.336371)"><g><path d="M 11.828125 -13.6875 C 10.378906 -13.6875 9.144531 -13.566406 8.125 -13.328125 C 7.113281 -13.085938 6.285156 -12.707031 5.640625 -12.1875 C 4.992188 -11.664062 4.519531 -11 4.21875 -10.1875 C 3.914062 -9.375 3.765625 -8.394531 3.765625 -7.25 C 3.765625 -6.09375 3.929688 -5.113281 4.265625 -4.3125 C 4.597656 -3.507812 5.097656 -2.851562 5.765625 -2.34375 C 6.441406 -1.84375 7.28125 -1.476562 8.28125 -1.25 C 9.289062 -1.03125 10.46875 -0.921875 11.8125 -0.921875 C 12.40625 -0.921875 13.015625 -0.960938 13.640625 -1.046875 C 14.265625 -1.140625 14.859375 -1.25 15.421875 -1.375 C 15.984375 -1.507812 16.503906 -1.660156 16.984375 -1.828125 C 17.460938 -1.992188 17.851562 -2.148438 18.15625 -2.296875 C 18.34375 -2.359375 18.472656 -2.390625 18.546875 -2.390625 C 18.710938 -2.390625 18.84375 -2.34375 18.9375 -2.25 C 19.03125 -2.15625 19.078125 -2.039062 19.078125 -1.90625 C 19.078125 -1.800781 19.046875 -1.695312 18.984375 -1.59375 C 18.921875 -1.488281 18.816406 -1.394531 18.671875 -1.3125 C 17.566406 -0.75 16.425781 -0.359375 15.25 -0.140625 C 14.070312 0.078125 12.929688 0.1875 11.828125 0.1875 C 10.390625 0.1875 9.082031 0.078125 7.90625 -0.140625 C 6.738281 -0.367188 5.738281 -0.765625 4.90625 -1.328125 C 4.070312 -1.898438 3.421875 -2.660156 2.953125 -3.609375 C 2.492188 -4.566406 2.265625 -5.78125 2.265625 -7.25 C 2.265625 -8.707031 2.476562 -9.914062 2.90625 -10.875 C 3.332031 -11.84375 3.953125 -12.617188 4.765625 -13.203125 C 5.578125 -13.785156 6.578125 -14.195312 7.765625 -14.4375 C 8.953125 -14.675781 10.304688 -14.796875 11.828125 -14.796875 C 12.929688 -14.796875 14.070312 -14.6875 15.25 -14.46875 C 16.425781 -14.25 17.566406 -13.859375 18.671875 -13.296875 C 18.816406 -13.222656 18.921875 -13.128906 18.984375 -13.015625 C 19.046875 -12.910156 19.078125 -12.804688 19.078125 -12.703125 C 19.078125 -12.566406 19.03125 -12.453125 18.9375 -12.359375 C 18.84375 -12.265625 18.710938 -12.21875 18.546875 -12.21875 C 18.472656 -12.21875 18.34375 -12.25 18.15625 -12.3125 C 17.851562 -12.46875 17.460938 -12.625 16.984375 -12.78125 C 16.503906 -12.945312 15.984375 -13.09375 15.421875 -13.21875 C 14.859375 -13.351562 14.265625 -13.460938 13.640625 -13.546875 C 13.015625 -13.640625 12.410156 -13.6875 11.828125 -13.6875 Z M 11.828125 -13.6875 "/></g></g></g><g fill="#ffffff" fill-opacity="1"><g transform="translate(152.814328, 273.336371)"><g><path d="M 11.671875 0.1875 C 9.941406 0.1875 8.476562 0.015625 7.28125 -0.328125 C 6.09375 -0.671875 5.128906 -1.160156 4.390625 -1.796875 C 3.660156 -2.441406 3.128906 -3.222656 2.796875 -4.140625 C 2.472656 -5.054688 2.3125 -6.09375 2.3125 -7.25 C 2.3125 -8.582031 2.492188 -9.722656 2.859375 -10.671875 C 3.234375 -11.617188 3.804688 -12.398438 4.578125 -13.015625 C 5.359375 -13.628906 6.332031 -14.078125 7.5 -14.359375 C 8.675781 -14.648438 10.066406 -14.796875 11.671875 -14.796875 C 13.273438 -14.796875 14.664062 -14.648438 15.84375 -14.359375 C 17.019531 -14.078125 17.992188 -13.628906 18.765625 -13.015625 C 19.535156 -12.398438 20.101562 -11.617188 20.46875 -10.671875 C 20.84375 -9.722656 21.03125 -8.582031 21.03125 -7.25 C 21.03125 -6.09375 20.863281 -5.054688 20.53125 -4.140625 C 20.207031 -3.222656 19.675781 -2.441406 18.9375 -1.796875 C 18.207031 -1.160156 17.242188 -0.671875 16.046875 -0.328125 C 14.859375 0.015625 13.398438 0.1875 11.671875 0.1875 Z M 11.671875 -0.921875 C 12.816406 -0.921875 13.800781 -1.003906 14.625 -1.171875 C 15.457031 -1.347656 16.164062 -1.582031 16.75 -1.875 C 17.332031 -2.175781 17.800781 -2.53125 18.15625 -2.9375 C 18.519531 -3.34375 18.800781 -3.78125 19 -4.25 C 19.207031 -4.71875 19.347656 -5.207031 19.421875 -5.71875 C 19.492188 -6.226562 19.53125 -6.738281 19.53125 -7.25 C 19.53125 -8.414062 19.378906 -9.40625 19.078125 -10.21875 C 18.773438 -11.039062 18.300781 -11.707031 17.65625 -12.21875 C 17.019531 -12.738281 16.207031 -13.113281 15.21875 -13.34375 C 14.226562 -13.570312 13.046875 -13.6875 11.671875 -13.6875 C 10.296875 -13.6875 9.113281 -13.570312 8.125 -13.34375 C 7.132812 -13.113281 6.316406 -12.738281 5.671875 -12.21875 C 5.035156 -11.707031 4.566406 -11.039062 4.265625 -10.21875 C 3.972656 -9.40625 3.828125 -8.414062 3.828125 -7.25 C 3.828125 -6.738281 3.859375 -6.226562 3.921875 -5.71875 C 3.992188 -5.207031 4.132812 -4.71875 4.34375 -4.25 C 4.550781 -3.78125 4.832031 -3.34375 5.1875 -2.9375 C 5.539062 -2.53125 6.007812 -2.175781 6.59375 -1.875 C 7.175781 -1.582031 7.878906 -1.347656 8.703125 -1.171875 C 9.535156 -1.003906 10.523438 -0.921875 11.671875 -0.921875 Z M 11.671875 -0.921875 "/></g></g></g><g fill="#ffffff" fill-opacity="1"><g transform="translate(176.164856, 273.336371)"><g/></g></g><g fill="#ffffff" fill-opacity="1"><g transform="translate(184.827149, 273.336371)"><g><path d="M 14.078125 -14.34375 C 14.222656 -14.3125 14.328125 -14.238281 14.390625 -14.125 C 14.453125 -14.019531 14.484375 -13.90625 14.484375 -13.78125 C 14.484375 -13.613281 14.425781 -13.460938 14.3125 -13.328125 C 14.207031 -13.191406 14.050781 -13.125 13.84375 -13.125 C 13.78125 -13.125 13.738281 -13.125 13.71875 -13.125 C 13.707031 -13.132812 13.671875 -13.144531 13.609375 -13.15625 C 13.117188 -13.300781 12.648438 -13.410156 12.203125 -13.484375 C 11.765625 -13.554688 11.28125 -13.59375 10.75 -13.59375 C 10.007812 -13.59375 9.300781 -13.519531 8.625 -13.375 C 7.957031 -13.226562 7.347656 -13.007812 6.796875 -12.71875 C 6.253906 -12.425781 5.78125 -12.050781 5.375 -11.59375 C 4.976562 -11.132812 4.679688 -10.597656 4.484375 -9.984375 L 4.484375 -1.3125 C 4.484375 -0.988281 4.4375 -0.6875 4.34375 -0.40625 C 4.257812 -0.132812 4.0625 0 3.75 0 C 3.570312 0 3.425781 -0.0351562 3.3125 -0.109375 C 3.207031 -0.179688 3.128906 -0.28125 3.078125 -0.40625 C 3.035156 -0.539062 3.003906 -0.6875 2.984375 -0.84375 C 2.972656 -1 2.96875 -1.15625 2.96875 -1.3125 L 2.96875 -13.375 C 2.96875 -13.65625 3.019531 -13.898438 3.125 -14.109375 C 3.226562 -14.316406 3.460938 -14.421875 3.828125 -14.421875 C 4.097656 -14.421875 4.273438 -14.320312 4.359375 -14.125 C 4.441406 -13.925781 4.484375 -13.675781 4.484375 -13.375 L 4.484375 -11.1875 C 4.679688 -11.945312 5.023438 -12.566406 5.515625 -13.046875 C 6.015625 -13.523438 6.566406 -13.890625 7.171875 -14.140625 C 7.785156 -14.398438 8.410156 -14.570312 9.046875 -14.65625 C 9.691406 -14.75 10.257812 -14.796875 10.75 -14.796875 C 11.226562 -14.796875 11.640625 -14.78125 11.984375 -14.75 C 12.328125 -14.71875 12.625 -14.679688 12.875 -14.640625 C 13.125 -14.597656 13.34375 -14.550781 13.53125 -14.5 C 13.726562 -14.445312 13.910156 -14.394531 14.078125 -14.34375 Z M 14.078125 -14.34375 "/></g></g></g><g fill="#ffffff" fill-opacity="1"><g transform="translate(200.061496, 273.336371)"><g><path d="M 11.671875 0.1875 C 9.941406 0.1875 8.476562 0.015625 7.28125 -0.328125 C 6.09375 -0.671875 5.128906 -1.160156 4.390625 -1.796875 C 3.660156 -2.441406 3.128906 -3.222656 2.796875 -4.140625 C 2.472656 -5.054688 2.3125 -6.09375 2.3125 -7.25 C 2.3125 -8.582031 2.492188 -9.722656 2.859375 -10.671875 C 3.234375 -11.617188 3.804688 -12.398438 4.578125 -13.015625 C 5.359375 -13.628906 6.332031 -14.078125 7.5 -14.359375 C 8.675781 -14.648438 10.066406 -14.796875 11.671875 -14.796875 C 13.273438 -14.796875 14.664062 -14.648438 15.84375 -14.359375 C 17.019531 -14.078125 17.992188 -13.628906 18.765625 -13.015625 C 19.535156 -12.398438 20.101562 -11.617188 20.46875 -10.671875 C 20.84375 -9.722656 21.03125 -8.582031 21.03125 -7.25 C 21.03125 -6.09375 20.863281 -5.054688 20.53125 -4.140625 C 20.207031 -3.222656 19.675781 -2.441406 18.9375 -1.796875 C 18.207031 -1.160156 17.242188 -0.671875 16.046875 -0.328125 C 14.859375 0.015625 13.398438 0.1875 11.671875 0.1875 Z M 11.671875 -0.921875 C 12.816406 -0.921875 13.800781 -1.003906 14.625 -1.171875 C 15.457031 -1.347656 16.164062 -1.582031 16.75 -1.875 C 17.332031 -2.175781 17.800781 -2.53125 18.15625 -2.9375 C 18.519531 -3.34375 18.800781 -3.78125 19 -4.25 C 19.207031 -4.71875 19.347656 -5.207031 19.421875 -5.71875 C 19.492188 -6.226562 19.53125 -6.738281 19.53125 -7.25 C 19.53125 -8.414062 19.378906 -9.40625 19.078125 -10.21875 C 18.773438 -11.039062 18.300781 -11.707031 17.65625 -12.21875 C 17.019531 -12.738281 16.207031 -13.113281 15.21875 -13.34375 C 14.226562 -13.570312 13.046875 -13.6875 11.671875 -13.6875 C 10.296875 -13.6875 9.113281 -13.570312 8.125 -13.34375 C 7.132812 -13.113281 6.316406 -12.738281 5.671875 -12.21875 C 5.035156 -11.707031 4.566406 -11.039062 4.265625 -10.21875 C 3.972656 -9.40625 3.828125 -8.414062 3.828125 -7.25 C 3.828125 -6.738281 3.859375 -6.226562 3.921875 -5.71875 C 3.992188 -5.207031 4.132812 -4.71875 4.34375 -4.25 C 4.550781 -3.78125 4.832031 -3.34375 5.1875 -2.9375 C 5.539062 -2.53125 6.007812 -2.175781 6.59375 -1.875 C 7.175781 -1.582031 7.878906 -1.347656 8.703125 -1.171875 C 9.535156 -1.003906 10.523438 -0.921875 11.671875 -0.921875 Z M 11.671875 -0.921875 "/></g></g></g><g fill="#ffffff" fill-opacity="1"><g transform="translate(223.412024, 273.336371)"><g><path d="M 11.828125 -13.6875 C 10.378906 -13.6875 9.144531 -13.566406 8.125 -13.328125 C 7.113281 -13.085938 6.285156 -12.707031 5.640625 -12.1875 C 4.992188 -11.664062 4.519531 -11 4.21875 -10.1875 C 3.914062 -9.375 3.765625 -8.394531 3.765625 -7.25 C 3.765625 -6.09375 3.929688 -5.113281 4.265625 -4.3125 C 4.597656 -3.507812 5.097656 -2.851562 5.765625 -2.34375 C 6.441406 -1.84375 7.28125 -1.476562 8.28125 -1.25 C 9.289062 -1.03125 10.46875 -0.921875 11.8125 -0.921875 C 12.40625 -0.921875 13.015625 -0.960938 13.640625 -1.046875 C 14.265625 -1.140625 14.859375 -1.25 15.421875 -1.375 C 15.984375 -1.507812 16.503906 -1.660156 16.984375 -1.828125 C 17.460938 -1.992188 17.851562 -2.148438 18.15625 -2.296875 C 18.34375 -2.359375 18.472656 -2.390625 18.546875 -2.390625 C 18.710938 -2.390625 18.84375 -2.34375 18.9375 -2.25 C 19.03125 -2.15625 19.078125 -2.039062 19.078125 -1.90625 C 19.078125 -1.800781 19.046875 -1.695312 18.984375 -1.59375 C 18.921875 -1.488281 18.816406 -1.394531 18.671875 -1.3125 C 17.566406 -0.75 16.425781 -0.359375 15.25 -0.140625 C 14.070312 0.078125 12.929688 0.1875 11.828125 0.1875 C 10.390625 0.1875 9.082031 0.078125 7.90625 -0.140625 C 6.738281 -0.367188 5.738281 -0.765625 4.90625 -1.328125 C 4.070312 -1.898438 3.421875 -2.660156 2.953125 -3.609375 C 2.492188 -4.566406 2.265625 -5.78125 2.265625 -7.25 C 2.265625 -8.707031 2.476562 -9.914062 2.90625 -10.875 C 3.332031 -11.84375 3.953125 -12.617188 4.765625 -13.203125 C 5.578125 -13.785156 6.578125 -14.195312 7.765625 -14.4375 C 8.953125 -14.675781 10.304688 -14.796875 11.828125 -14.796875 C 12.929688 -14.796875 14.070312 -14.6875 15.25 -14.46875 C 16.425781 -14.25 17.566406 -13.859375 18.671875 -13.296875 C 18.816406 -13.222656 18.921875 -13.128906 18.984375 -13.015625 C 19.046875 -12.910156 19.078125 -12.804688 19.078125 -12.703125 C 19.078125 -12.566406 19.03125 -12.453125 18.9375 -12.359375 C 18.84375 -12.265625 18.710938 -12.21875 18.546875 -12.21875 C 18.472656 -12.21875 18.34375 -12.25 18.15625 -12.3125 C 17.851562 -12.46875 17.460938 -12.625 16.984375 -12.78125 C 16.503906 -12.945312 15.984375 -13.09375 15.421875 -13.21875 C 14.859375 -13.351562 14.265625 -13.460938 13.640625 -13.546875 C 13.015625 -13.640625 12.410156 -13.6875 11.828125 -13.6875 Z M 11.828125 -13.6875 "/></g></g></g><g fill="#ffffff" fill-opacity="1"><g transform="translate(244.728797, 273.336371)"><g><path d="M 11.828125 -13.6875 C 10.378906 -13.6875 9.144531 -13.566406 8.125 -13.328125 C 7.113281 -13.085938 6.285156 -12.707031 5.640625 -12.1875 C 4.992188 -11.664062 4.519531 -11 4.21875 -10.1875 C 3.914062 -9.375 3.765625 -8.394531 3.765625 -7.25 C 3.765625 -6.09375 3.929688 -5.113281 4.265625 -4.3125 C 4.597656 -3.507812 5.097656 -2.851562 5.765625 -2.34375 C 6.441406 -1.84375 7.28125 -1.476562 8.28125 -1.25 C 9.289062 -1.03125 10.46875 -0.921875 11.8125 -0.921875 C 12.40625 -0.921875 13.015625 -0.960938 13.640625 -1.046875 C 14.265625 -1.140625 14.859375 -1.25 15.421875 -1.375 C 15.984375 -1.507812 16.503906 -1.660156 16.984375 -1.828125 C 17.460938 -1.992188 17.851562 -2.148438 18.15625 -2.296875 C 18.34375 -2.359375 18.472656 -2.390625 18.546875 -2.390625 C 18.710938 -2.390625 18.84375 -2.34375 18.9375 -2.25 C 19.03125 -2.15625 19.078125 -2.039062 19.078125 -1.90625 C 19.078125 -1.800781 19.046875 -1.695312 18.984375 -1.59375 C 18.921875 -1.488281 18.816406 -1.394531 18.671875 -1.3125 C 17.566406 -0.75 16.425781 -0.359375 15.25 -0.140625 C 14.070312 0.078125 12.929688 0.1875 11.828125 0.1875 C 10.390625 0.1875 9.082031 0.078125 7.90625 -0.140625 C 6.738281 -0.367188 5.738281 -0.765625 4.90625 -1.328125 C 4.070312 -1.898438 3.421875 -2.660156 2.953125 -3.609375 C 2.492188 -4.566406 2.265625 -5.78125 2.265625 -7.25 C 2.265625 -8.707031 2.476562 -9.914062 2.90625 -10.875 C 3.332031 -11.84375 3.953125 -12.617188 4.765625 -13.203125 C 5.578125 -13.785156 6.578125 -14.195312 7.765625 -14.4375 C 8.953125 -14.675781 10.304688 -14.796875 11.828125 -14.796875 C 12.929688 -14.796875 14.070312 -14.6875 15.25 -14.46875 C 16.425781 -14.25 17.566406 -13.859375 18.671875 -13.296875 C 18.816406 -13.222656 18.921875 -13.128906 18.984375 -13.015625 C 19.046875 -12.910156 19.078125 -12.804688 19.078125 -12.703125 C 19.078125 -12.566406 19.03125 -12.453125 18.9375 -12.359375 C 18.84375 -12.265625 18.710938 -12.21875 18.546875 -12.21875 C 18.472656 -12.21875 18.34375 -12.25 18.15625 -12.3125 C 17.851562 -12.46875 17.460938 -12.625 16.984375 -12.78125 C 16.503906 -12.945312 15.984375 -13.09375 15.421875 -13.21875 C 14.859375 -13.351562 14.265625 -13.460938 13.640625 -13.546875 C 13.015625 -13.640625 12.410156 -13.6875 11.828125 -13.6875 Z M 11.828125 -13.6875 "/></g></g></g><g fill="#ffffff" fill-opacity="1"><g transform="translate(266.04557, 273.336371)"><g><path d="M 11.671875 0.1875 C 9.941406 0.1875 8.476562 0.015625 7.28125 -0.328125 C 6.09375 -0.671875 5.128906 -1.160156 4.390625 -1.796875 C 3.660156 -2.441406 3.128906 -3.222656 2.796875 -4.140625 C 2.472656 -5.054688 2.3125 -6.09375 2.3125 -7.25 C 2.3125 -8.582031 2.492188 -9.722656 2.859375 -10.671875 C 3.234375 -11.617188 3.804688 -12.398438 4.578125 -13.015625 C 5.359375 -13.628906 6.332031 -14.078125 7.5 -14.359375 C 8.675781 -14.648438 10.066406 -14.796875 11.671875 -14.796875 C 13.273438 -14.796875 14.664062 -14.648438 15.84375 -14.359375 C 17.019531 -14.078125 17.992188 -13.628906 18.765625 -13.015625 C 19.535156 -12.398438 20.101562 -11.617188 20.46875 -10.671875 C 20.84375 -9.722656 21.03125 -8.582031 21.03125 -7.25 C 21.03125 -6.09375 20.863281 -5.054688 20.53125 -4.140625 C 20.207031 -3.222656 19.675781 -2.441406 18.9375 -1.796875 C 18.207031 -1.160156 17.242188 -0.671875 16.046875 -0.328125 C 14.859375 0.015625 13.398438 0.1875 11.671875 0.1875 Z M 11.671875 -0.921875 C 12.816406 -0.921875 13.800781 -1.003906 14.625 -1.171875 C 15.457031 -1.347656 16.164062 -1.582031 16.75 -1.875 C 17.332031 -2.175781 17.800781 -2.53125 18.15625 -2.9375 C 18.519531 -3.34375 18.800781 -3.78125 19 -4.25 C 19.207031 -4.71875 19.347656 -5.207031 19.421875 -5.71875 C 19.492188 -6.226562 19.53125 -6.738281 19.53125 -7.25 C 19.53125 -8.414062 19.378906 -9.40625 19.078125 -10.21875 C 18.773438 -11.039062 18.300781 -11.707031 17.65625 -12.21875 C 17.019531 -12.738281 16.207031 -13.113281 15.21875 -13.34375 C 14.226562 -13.570312 13.046875 -13.6875 11.671875 -13.6875 C 10.296875 -13.6875 9.113281 -13.570312 8.125 -13.34375 C 7.132812 -13.113281 6.316406 -12.738281 5.671875 -12.21875 C 5.035156 -11.707031 4.566406 -11.039062 4.265625 -10.21875 C 3.972656 -9.40625 3.828125 -8.414062 3.828125 -7.25 C 3.828125 -6.738281 3.859375 -6.226562 3.921875 -5.71875 C 3.992188 -5.207031 4.132812 -4.71875 4.34375 -4.25 C 4.550781 -3.78125 4.832031 -3.34375 5.1875 -2.9375 C 5.539062 -2.53125 6.007812 -2.175781 6.59375 -1.875 C 7.175781 -1.582031 7.878906 -1.347656 8.703125 -1.171875 C 9.535156 -1.003906 10.523438 -0.921875 11.671875 -0.921875 Z M 11.671875 -0.921875 "/></g></g></g><g fill="#ffffff" fill-opacity="1"><g transform="translate(289.396098, 273.336371)"><g><path d="M 19.671875 -1.359375 C 19.671875 -1.191406 19.65625 -1.023438 19.625 -0.859375 C 19.601562 -0.703125 19.566406 -0.5625 19.515625 -0.4375 C 19.460938 -0.3125 19.382812 -0.207031 19.28125 -0.125 C 19.175781 -0.0390625 19.050781 0 18.90625 0 C 18.71875 0 18.578125 -0.0390625 18.484375 -0.125 C 18.390625 -0.207031 18.316406 -0.3125 18.265625 -0.4375 C 18.210938 -0.5625 18.179688 -0.703125 18.171875 -0.859375 C 18.171875 -1.023438 18.171875 -1.191406 18.171875 -1.359375 L 18.171875 -7.875 C 18.171875 -8.851562 18.097656 -9.707031 17.953125 -10.4375 C 17.804688 -11.164062 17.519531 -11.769531 17.09375 -12.25 C 16.675781 -12.726562 16.09375 -13.085938 15.34375 -13.328125 C 14.601562 -13.566406 13.628906 -13.6875 12.421875 -13.6875 C 11.679688 -13.6875 10.894531 -13.625 10.0625 -13.5 C 9.238281 -13.382812 8.453125 -13.179688 7.703125 -12.890625 C 6.953125 -12.597656 6.285156 -12.207031 5.703125 -11.71875 C 5.128906 -11.226562 4.726562 -10.609375 4.5 -9.859375 L 4.5 -1.359375 C 4.5 -1.191406 4.492188 -1.023438 4.484375 -0.859375 C 4.472656 -0.703125 4.441406 -0.5625 4.390625 -0.4375 C 4.335938 -0.3125 4.265625 -0.207031 4.171875 -0.125 C 4.078125 -0.0390625 3.953125 0 3.796875 0 C 3.628906 0 3.488281 -0.0390625 3.375 -0.125 C 3.269531 -0.207031 3.1875 -0.3125 3.125 -0.4375 C 3.070312 -0.5625 3.035156 -0.703125 3.015625 -0.859375 C 3.003906 -1.023438 3 -1.191406 3 -1.359375 L 3 -13.5625 C 3 -13.769531 3.039062 -13.960938 3.125 -14.140625 C 3.207031 -14.328125 3.425781 -14.421875 3.78125 -14.421875 C 4.09375 -14.421875 4.289062 -14.335938 4.375 -14.171875 C 4.457031 -14.003906 4.5 -13.800781 4.5 -13.5625 L 4.5 -11.1875 C 4.851562 -11.988281 5.34375 -12.628906 5.96875 -13.109375 C 6.59375 -13.597656 7.28125 -13.960938 8.03125 -14.203125 C 8.78125 -14.453125 9.539062 -14.613281 10.3125 -14.6875 C 11.082031 -14.757812 11.785156 -14.796875 12.421875 -14.796875 C 13.785156 -14.796875 14.925781 -14.679688 15.84375 -14.453125 C 16.769531 -14.222656 17.515625 -13.835938 18.078125 -13.296875 C 18.648438 -12.753906 19.054688 -12.039062 19.296875 -11.15625 C 19.546875 -10.269531 19.671875 -9.175781 19.671875 -7.875 Z M 19.671875 -1.359375 "/></g></g></g><path stroke-linecap="butt" transform="matrix(0.75, 0, 0, 0.75, 37.500002, 334.499978)" fill="none" stroke-linejoin="miter" d="M -0.00000271667 2.000029 L 400.000024 2.000029 " stroke="#ffffff" stroke-width="4" stroke-opacity="1" stroke-miterlimit="4"/><path stroke-linecap="butt" transform="matrix(0.75, 0, 0, 0.75, 37.500002, 37.499998)" fill="none" stroke-linejoin="miter" d="M -0.00000271667 2.000003 L 400.000024 2.000003 " stroke="#ffffff" stroke-width="4" stroke-opacity="1" stroke-miterlimit="4"/></svg>