<svg xmlns="http://www.w3.org/2000/svg" xmlns:xlink="http://www.w3.org/1999/xlink" width="500" zoomAndPan="magnify" viewBox="0 0 375 374.999991" height="500" preserveAspectRatio="xMidYMid meet" version="1.0"><defs><g/></defs><rect x="-37.5" width="450" fill="#ffffff" y="-37.499999" height="449.999989" fill-opacity="1"/><rect x="-37.5" width="450" fill="#ffffff" y="-37.499999" height="449.999989" fill-opacity="1"/><rect x="-37.5" width="450" fill="#000000" y="-37.499999" height="449.999989" fill-opacity="1"/><g fill="#ffffff" fill-opacity="1"><g transform="translate(-9.062379, 265.507407)"><g><path d="M 165.546875 -181.679688 L 111.6875 -104.492188 L 57.582031 -181.679688 C 56.589844 -183.167969 54.851562 -183.417969 53.609375 -182.425781 C 52.371094 -181.679688 51.875 -179.695312 52.867188 -178.453125 L 108.957031 -97.789062 L 109.703125 -97.046875 C 111.441406 -96.050781 113.179688 -96.546875 113.921875 -97.789062 L 170.261719 -178.453125 C 171.007812 -179.695312 170.761719 -181.679688 169.519531 -182.425781 C 168.277344 -183.417969 166.292969 -183.167969 165.546875 -181.679688 Z M 25.8125 0 L 25.8125 -180.191406 C 25.8125 -181.679688 24.324219 -182.921875 22.585938 -182.921875 C 21.097656 -182.921875 19.855469 -181.679688 19.855469 -180.191406 L 19.855469 0 C 19.855469 1.488281 21.097656 2.730469 22.585938 2.730469 C 24.324219 2.730469 25.8125 1.488281 25.8125 0 Z M 203.273438 0 L 203.273438 -180.191406 C 203.273438 -181.679688 202.03125 -182.921875 200.296875 -182.921875 C 198.804688 -182.921875 197.566406 -181.679688 197.566406 -180.191406 L 197.566406 0 C 197.566406 1.488281 198.804688 2.730469 200.296875 2.730469 C 202.03125 2.730469 203.273438 1.488281 203.273438 0 Z M 167.285156 0 L 167.285156 -112.183594 C 167.285156 -115.164062 163.808594 -116.40625 162.074219 -113.675781 L 111.6875 -41.695312 L 61.304688 -113.921875 C 59.566406 -116.15625 55.84375 -115.164062 55.84375 -112.183594 L 55.84375 0 C 55.84375 1.488281 57.085938 2.730469 58.574219 2.730469 C 60.558594 2.730469 61.800781 1.488281 61.800781 0 L 61.800781 -103.003906 L 108.957031 -34.746094 L 109.703125 -34.003906 C 111.441406 -33.257812 113.179688 -33.507812 113.921875 -34.746094 L 161.578125 -103.003906 L 161.578125 0 C 161.578125 1.488281 162.816406 2.730469 164.554688 2.730469 C 166.042969 2.730469 167.285156 1.488281 167.285156 0 Z M 167.285156 0 "/></g></g></g><g fill="#ffffff" fill-opacity="1"><g transform="translate(214.314974, 265.507407)"><g><path d="M 25.5625 0 L 25.5625 -174.484375 L 92.328125 -174.484375 C 120.128906 -174.484375 141.96875 -151.648438 141.96875 -124.097656 C 141.96875 -96.796875 120.128906 -73.960938 92.328125 -73.960938 C 90.839844 -73.960938 89.597656 -72.722656 89.597656 -70.984375 C 89.597656 -70.238281 89.847656 -69.496094 90.34375 -69 L 144.949219 1.488281 C 146.1875 2.976562 147.925781 3.226562 149.167969 1.984375 C 150.40625 1.242188 150.65625 -0.496094 149.664062 -1.738281 L 98.285156 -68.253906 C 126.582031 -71.234375 147.925781 -95.804688 147.925781 -124.097656 C 147.925781 -154.875 123.355469 -180.441406 92.328125 -180.441406 L 22.585938 -180.441406 C 21.097656 -180.441406 19.855469 -178.949219 19.855469 -177.460938 L 19.855469 0 C 19.855469 1.488281 21.097656 2.976562 22.585938 2.976562 C 24.324219 2.976562 25.5625 1.488281 25.5625 0 Z M 79.421875 -103.746094 L 89.351562 -103.746094 C 101.015625 -103.746094 110.449219 -112.433594 110.449219 -124.097656 C 110.449219 -136.011719 101.015625 -144.699219 89.351562 -144.699219 L 58.078125 -144.699219 C 54.355469 -144.699219 54.355469 -138.992188 58.078125 -138.992188 L 89.351562 -138.992188 C 97.789062 -138.992188 104.738281 -132.785156 104.738281 -124.097656 C 104.738281 -115.660156 97.789062 -109.207031 89.351562 -109.207031 L 79.421875 -109.207031 C 77.6875 -109.207031 76.445312 -107.964844 76.445312 -106.476562 C 76.445312 -104.988281 77.6875 -103.746094 79.421875 -103.746094 Z M 106.476562 -1.738281 L 60.3125 -63.289062 C 59.320312 -64.53125 57.582031 -64.78125 56.339844 -64.035156 C 55.597656 -63.289062 55.101562 -62.296875 55.347656 -61.554688 L 55.347656 0 C 55.347656 1.488281 56.589844 2.976562 58.078125 2.976562 C 59.566406 2.976562 61.054688 1.488281 61.054688 0 L 61.054688 -53.113281 L 101.761719 1.488281 C 102.753906 2.976562 104.738281 3.226562 105.980469 2.234375 C 107.222656 1.242188 107.46875 -0.496094 106.476562 -1.738281 Z M 106.476562 -1.738281 "/></g></g></g></svg>