<svg xmlns="http://www.w3.org/2000/svg" xmlns:xlink="http://www.w3.org/1999/xlink" width="500" zoomAndPan="magnify" viewBox="0 0 375 374.999991" height="500" preserveAspectRatio="xMidYMid meet" version="1.0"><defs><g/></defs><rect x="-37.5" width="450" fill="#ffffff" y="-37.499999" height="449.999989" fill-opacity="1"/><rect x="-37.5" width="450" fill="#ffffff" y="-37.499999" height="449.999989" fill-opacity="1"/><rect x="-37.5" width="450" fill="#000000" y="-37.499999" height="449.999989" fill-opacity="1"/><g fill="#ffffff" fill-opacity="1"><g transform="translate(-9.308473, 265.507407)"><g><path d="M 157.109375 -179.199219 L 111.191406 -113.425781 L 65.773438 -179.199219 C 63.042969 -182.921875 57.582031 -183.914062 53.859375 -181.183594 C 50.136719 -178.453125 49.390625 -173.242188 51.875 -169.519531 L 104.492188 -94.316406 C 104.988281 -93.320312 105.730469 -92.578125 106.476562 -92.082031 C 110.199219 -89.101562 115.660156 -90.09375 118.390625 -94.066406 L 171.007812 -169.519531 C 173.488281 -173.242188 172.746094 -178.453125 169.023438 -181.183594 C 165.050781 -183.914062 159.839844 -182.921875 157.109375 -179.199219 Z M 36.734375 -5.957031 L 36.734375 -174.234375 C 36.734375 -178.949219 33.011719 -182.671875 28.292969 -182.671875 C 23.578125 -182.671875 19.855469 -178.949219 19.855469 -174.234375 L 19.855469 -5.957031 C 19.855469 -1.242188 23.578125 2.480469 28.292969 2.480469 C 33.011719 2.480469 36.734375 -1.242188 36.734375 -5.957031 Z M 203.027344 -5.957031 L 203.027344 -174.234375 C 203.027344 -178.949219 199.300781 -182.671875 194.339844 -182.671875 C 189.871094 -182.671875 186.148438 -178.949219 186.148438 -174.234375 L 186.148438 -5.957031 C 186.148438 -1.242188 189.871094 2.480469 194.339844 2.480469 C 199.300781 2.480469 203.027344 -1.242188 203.027344 -5.957031 Z M 169.269531 -5.957031 L 169.269531 -110.945312 C 169.269531 -115.410156 165.546875 -119.136719 160.832031 -119.136719 C 157.855469 -119.136719 155.371094 -117.644531 153.882812 -115.410156 L 111.191406 -54.601562 L 69 -115.660156 C 66.269531 -119.382812 60.808594 -120.375 57.085938 -117.644531 C 54.851562 -116.15625 53.609375 -113.425781 53.609375 -110.945312 L 53.609375 -5.957031 C 53.609375 -1.242188 57.332031 2.480469 61.800781 2.480469 C 66.765625 2.480469 70.488281 -1.242188 70.488281 -5.957031 L 70.488281 -84.140625 L 104.492188 -35.242188 C 104.988281 -34.5 105.730469 -33.753906 106.476562 -33.011719 C 110.199219 -30.527344 115.660156 -31.519531 118.390625 -35.242188 L 152.394531 -84.140625 L 152.394531 -5.957031 C 152.394531 -1.242188 156.117188 2.480469 160.832031 2.480469 C 165.546875 2.480469 169.269531 -1.242188 169.269531 -5.957031 Z M 169.269531 -5.957031 "/></g></g></g><g fill="#ffffff" fill-opacity="1"><g transform="translate(213.820675, 265.507407)"><g><path d="M 36.484375 -5.707031 L 36.484375 -163.3125 L 93.570312 -163.3125 C 104.738281 -163.3125 114.914062 -158.847656 122.363281 -151.402344 C 147.925781 -125.589844 130.054688 -80.414062 93.570312 -80.414062 C 87.367188 -80.414062 82.402344 -73.21875 87.367188 -66.765625 L 133.28125 -0.992188 C 139.238281 7.941406 152.890625 -1.738281 146.683594 -10.671875 L 108.214844 -65.773438 C 118.140625 -68.253906 127.078125 -73.714844 134.273438 -80.914062 C 170.015625 -117.644531 144.449219 -179.941406 93.570312 -179.941406 L 28.292969 -179.941406 C 23.828125 -179.941406 19.855469 -176.21875 19.855469 -171.753906 L 19.855469 -5.707031 C 19.855469 5.210938 36.484375 5.210938 36.484375 -5.707031 Z M 90.839844 -97.046875 C 104.492188 -97.046875 115.910156 -107.71875 115.910156 -121.617188 C 115.910156 -134.273438 105.980469 -146.933594 90.839844 -146.933594 L 61.304688 -146.933594 C 50.382812 -146.933594 50.382812 -130.304688 61.304688 -130.304688 L 90.839844 -130.304688 C 95.554688 -130.304688 99.527344 -126.828125 99.527344 -121.863281 C 99.527344 -112.183594 90.34375 -113.425781 82.648438 -113.425781 C 69.246094 -113.425781 69.742188 -97.789062 82.648438 -97.046875 C 85.378906 -96.796875 88.605469 -97.046875 90.839844 -97.046875 Z M 106.230469 -10.671875 L 68.253906 -65.027344 C 63.539062 -71.234375 53.113281 -68.75 53.113281 -59.816406 L 53.113281 -5.707031 C 53.113281 5.210938 69.742188 5.210938 69.742188 -5.707031 L 69.742188 -34.003906 L 92.578125 -0.992188 C 99.03125 7.941406 112.433594 -1.738281 106.230469 -10.671875 Z M 106.230469 -10.671875 "/></g></g></g></svg>