<svg xmlns="http://www.w3.org/2000/svg" xmlns:xlink="http://www.w3.org/1999/xlink" width="500" zoomAndPan="magnify" viewBox="0 0 375 374.999991" height="500" preserveAspectRatio="xMidYMid meet" version="1.0"><defs><clipPath id="c09b7d683b"><path d="M 187.5 0 C 83.945312 0 0 83.945312 0 187.5 C 0 291.054688 83.945312 375 187.5 375 C 291.054688 375 375 291.054688 375 187.5 C 375 83.945312 291.054688 0 187.5 0 Z M 187.5 0 " clip-rule="nonzero"/></clipPath><clipPath id="e54c5270d7"><path d="M 173.855469 40.300781 L 201.140625 40.300781 L 201.140625 331.015625 L 173.855469 331.015625 Z M 173.855469 40.300781 " clip-rule="nonzero"/></clipPath><clipPath id="87c027dcf7"><path d="M 173.855469 26.65625 L 201.140625 26.65625 L 201.140625 53.941406 L 173.855469 53.941406 Z M 173.855469 26.65625 " clip-rule="nonzero"/></clipPath><clipPath id="475f1a7c87"><path d="M 187.5 26.65625 C 179.964844 26.65625 173.855469 32.765625 173.855469 40.300781 C 173.855469 47.832031 179.964844 53.941406 187.5 53.941406 C 195.035156 53.941406 201.140625 47.832031 201.140625 40.300781 C 201.140625 32.765625 195.035156 26.65625 187.5 26.65625 Z M 187.5 26.65625 " clip-rule="nonzero"/></clipPath><clipPath id="d0fdb9db92"><path d="M 173.855469 317.375 L 201.140625 317.375 L 201.140625 344.660156 L 173.855469 344.660156 Z M 173.855469 317.375 " clip-rule="nonzero"/></clipPath><clipPath id="55e8e613a4"><path d="M 187.5 317.375 C 179.964844 317.375 173.855469 323.480469 173.855469 331.015625 C 173.855469 338.550781 179.964844 344.660156 187.5 344.660156 C 195.035156 344.660156 201.140625 338.550781 201.140625 331.015625 C 201.140625 323.480469 195.035156 317.375 187.5 317.375 Z M 187.5 317.375 " clip-rule="nonzero"/></clipPath></defs><rect x="-37.5" width="450" fill="#ffffff" y="-37.499999" height="449.999989" fill-opacity="1"/><rect x="-37.5" width="450" fill="#ffffff" y="-37.499999" height="449.999989" fill-opacity="1"/><g clip-path="url(#c09b7d683b)"><rect x="-37.5" width="450" fill="#000000" y="-37.499999" height="449.999989" fill-opacity="1"/><path stroke-linecap="butt" transform="matrix(0.75, 0, 0, 0.75, 0.0000045, 0)" fill="none" stroke-linejoin="miter" d="M 249.999994 0 C 111.927078 0 -0.000006 111.927084 -0.000006 250 C -0.000006 388.072917 111.927078 500.000001 249.999994 500.000001 C 388.072911 500.000001 499.999995 388.072917 499.999995 250 C 499.999995 111.927084 388.072911 0 249.999994 0 Z M 249.999994 0 " stroke="#ffde59" stroke-width="30" stroke-opacity="1" stroke-miterlimit="4"/></g><g clip-path="url(#e54c5270d7)"><path fill="#000000" d="M 173.855469 40.300781 L 201.140625 40.300781 L 201.140625 331.054688 L 173.855469 331.054688 Z M 173.855469 40.300781 " fill-opacity="1" fill-rule="nonzero"/></g><g clip-path="url(#87c027dcf7)"><g clip-path="url(#475f1a7c87)"><path fill="#000000" d="M 173.855469 26.65625 L 201.140625 26.65625 L 201.140625 53.941406 L 173.855469 53.941406 Z M 173.855469 26.65625 " fill-opacity="1" fill-rule="nonzero"/></g></g><g clip-path="url(#d0fdb9db92)"><g clip-path="url(#55e8e613a4)"><path fill="#000000" d="M 173.855469 317.375 L 201.140625 317.375 L 201.140625 344.660156 L 173.855469 344.660156 Z M 173.855469 317.375 " fill-opacity="1" fill-rule="nonzero"/></g></g></svg>