<svg xmlns="http://www.w3.org/2000/svg" xmlns:xlink="http://www.w3.org/1999/xlink" width="500" zoomAndPan="magnify" viewBox="0 0 375 374.999991" height="500" preserveAspectRatio="xMidYMid meet" version="1.0"><defs><clipPath id="407d3bdc0a"><path d="M 187.5 0 C 83.945312 0 0 83.945312 0 187.5 C 0 291.054688 83.945312 375 187.5 375 C 291.054688 375 375 291.054688 375 187.5 C 375 83.945312 291.054688 0 187.5 0 Z M 187.5 0 " clip-rule="nonzero"/></clipPath><clipPath id="ae1ec1866c"><path d="M 173.855469 40.300781 L 201.140625 40.300781 L 201.140625 331.015625 L 173.855469 331.015625 Z M 173.855469 40.300781 " clip-rule="nonzero"/></clipPath><clipPath id="9a0d7306da"><path d="M 173.855469 26.65625 L 201.140625 26.65625 L 201.140625 53.941406 L 173.855469 53.941406 Z M 173.855469 26.65625 " clip-rule="nonzero"/></clipPath><clipPath id="b1c39efa64"><path d="M 187.5 26.65625 C 179.964844 26.65625 173.855469 32.765625 173.855469 40.300781 C 173.855469 47.832031 179.964844 53.941406 187.5 53.941406 C 195.035156 53.941406 201.140625 47.832031 201.140625 40.300781 C 201.140625 32.765625 195.035156 26.65625 187.5 26.65625 Z M 187.5 26.65625 " clip-rule="nonzero"/></clipPath><clipPath id="cc7abc3394"><path d="M 173.855469 317.375 L 201.140625 317.375 L 201.140625 344.660156 L 173.855469 344.660156 Z M 173.855469 317.375 " clip-rule="nonzero"/></clipPath><clipPath id="ef0bb21926"><path d="M 187.5 317.375 C 179.964844 317.375 173.855469 323.480469 173.855469 331.015625 C 173.855469 338.550781 179.964844 344.660156 187.5 344.660156 C 195.035156 344.660156 201.140625 338.550781 201.140625 331.015625 C 201.140625 323.480469 195.035156 317.375 187.5 317.375 Z M 187.5 317.375 " clip-rule="nonzero"/></clipPath><clipPath id="23790d9b3f"><path d="M 67.027344 183 L 135 183 L 135 288.863281 L 67.027344 288.863281 Z M 67.027344 183 " clip-rule="nonzero"/></clipPath><clipPath id="235facfc48"><path d="M 224 63.863281 L 292.027344 63.863281 L 292.027344 169 L 224 169 Z M 224 63.863281 " clip-rule="nonzero"/></clipPath><clipPath id="e562e0af14"><path d="M 112 108 L 292.027344 108 L 292.027344 267 L 112 267 Z M 112 108 " clip-rule="nonzero"/></clipPath></defs><g clip-path="url(#407d3bdc0a)"><rect x="-37.5" width="450" fill="#000000" y="-37.499999" height="449.999989" fill-opacity="1"/><path stroke-linecap="butt" transform="matrix(0.75, 0, 0, 0.75, 0.0000045, 0)" fill="none" stroke-linejoin="miter" d="M 249.999994 0 C 111.927078 0 -0.000006 111.927084 -0.000006 250 C -0.000006 388.072917 111.927078 500.000001 249.999994 500.000001 C 388.072911 500.000001 499.999995 388.072917 499.999995 250 C 499.999995 111.927084 388.072911 0 249.999994 0 Z M 249.999994 0 " stroke="#ffde59" stroke-width="30" stroke-opacity="1" stroke-miterlimit="4"/></g><g clip-path="url(#ae1ec1866c)"><path fill="#000000" d="M 173.855469 40.300781 L 201.140625 40.300781 L 201.140625 331.054688 L 173.855469 331.054688 Z M 173.855469 40.300781 " fill-opacity="1" fill-rule="nonzero"/></g><g clip-path="url(#9a0d7306da)"><g clip-path="url(#b1c39efa64)"><path fill="#000000" d="M 173.855469 26.65625 L 201.140625 26.65625 L 201.140625 53.941406 L 173.855469 53.941406 Z M 173.855469 26.65625 " fill-opacity="1" fill-rule="nonzero"/></g></g><g clip-path="url(#cc7abc3394)"><g clip-path="url(#ef0bb21926)"><path fill="#000000" d="M 173.855469 317.375 L 201.140625 317.375 L 201.140625 344.660156 L 173.855469 344.660156 Z M 173.855469 317.375 " fill-opacity="1" fill-rule="nonzero"/></g></g><path fill="#ffffff" d="M 100.777344 206.363281 C 94.566406 206.363281 89.527344 211.402344 89.527344 217.613281 C 89.527344 223.824219 94.566406 228.863281 100.777344 228.863281 C 106.988281 228.863281 112.027344 223.824219 112.027344 217.613281 C 112.027344 211.402344 106.988281 206.363281 100.777344 206.363281 Z M 100.777344 236.363281 C 90.433594 236.363281 82.027344 227.953125 82.027344 217.613281 C 82.027344 207.269531 90.433594 198.863281 100.777344 198.863281 C 111.117188 198.863281 119.527344 207.269531 119.527344 217.613281 C 119.527344 227.953125 111.117188 236.363281 100.777344 236.363281 " fill-opacity="1" fill-rule="nonzero"/><g clip-path="url(#23790d9b3f)"><path fill="#ffffff" d="M 100.777344 281.363281 C 83.726562 281.363281 74.527344 276.042969 74.527344 273.863281 C 74.527344 272.28125 80.195312 268.074219 93.289062 266.785156 C 95.546875 269.671875 97.246094 271.738281 97.890625 272.515625 C 98.609375 273.363281 99.664062 273.863281 100.777344 273.863281 C 101.890625 273.863281 102.945312 273.363281 103.660156 272.515625 C 104.304688 271.738281 106.003906 269.671875 108.261719 266.785156 C 121.34375 268.074219 127.027344 272.28125 127.027344 273.863281 C 127.027344 276.042969 117.828125 281.363281 100.777344 281.363281 Z M 100.777344 191.363281 C 115.25 191.363281 127.027344 203.140625 127.027344 217.613281 C 127.027344 228.789062 110.105469 252.417969 100.777344 264.164062 C 91.445312 252.417969 74.527344 228.789062 74.527344 217.613281 C 74.527344 203.140625 86.304688 191.363281 100.777344 191.363281 Z M 113.492188 259.886719 C 122.585938 247.496094 134.527344 229.050781 134.527344 217.613281 C 134.527344 199.007812 119.378906 183.863281 100.777344 183.863281 C 82.171875 183.863281 67.027344 199.007812 67.027344 217.613281 C 67.027344 229.050781 78.964844 247.496094 88.074219 259.886719 C 77.28125 261.660156 67.027344 266.023438 67.027344 273.863281 C 67.027344 283.707031 84.003906 288.863281 100.777344 288.863281 C 117.546875 288.863281 134.527344 283.707031 134.527344 273.863281 C 134.527344 266.023438 124.273438 261.660156 113.492188 259.886719 " fill-opacity="1" fill-rule="nonzero"/></g><path fill="#ffffff" d="M 258.277344 86.363281 C 252.066406 86.363281 247.027344 91.402344 247.027344 97.613281 C 247.027344 103.824219 252.066406 108.863281 258.277344 108.863281 C 264.488281 108.863281 269.527344 103.824219 269.527344 97.613281 C 269.527344 91.402344 264.488281 86.363281 258.277344 86.363281 Z M 258.277344 116.363281 C 247.933594 116.363281 239.527344 107.953125 239.527344 97.613281 C 239.527344 87.269531 247.933594 78.863281 258.277344 78.863281 C 268.617188 78.863281 277.027344 87.269531 277.027344 97.613281 C 277.027344 107.953125 268.617188 116.363281 258.277344 116.363281 " fill-opacity="1" fill-rule="nonzero"/><g clip-path="url(#235facfc48)"><path fill="#ffffff" d="M 258.277344 161.363281 C 241.226562 161.363281 232.027344 156.042969 232.027344 153.863281 C 232.027344 152.28125 237.710938 148.089844 250.789062 146.785156 C 253.046875 149.671875 254.746094 151.738281 255.390625 152.515625 C 256.109375 153.363281 257.164062 153.863281 258.277344 153.863281 C 259.390625 153.863281 260.445312 153.363281 261.160156 152.515625 C 261.804688 151.738281 263.503906 149.671875 265.761719 146.785156 C 278.84375 148.089844 284.527344 152.28125 284.527344 153.863281 C 284.527344 156.042969 275.328125 161.363281 258.277344 161.363281 Z M 258.277344 71.363281 C 272.75 71.363281 284.527344 83.140625 284.527344 97.613281 C 284.527344 108.789062 267.605469 132.417969 258.277344 144.164062 C 248.945312 132.417969 232.027344 108.789062 232.027344 97.613281 C 232.027344 83.140625 243.804688 71.363281 258.277344 71.363281 Z M 270.992188 139.886719 C 280.085938 127.496094 292.027344 109.050781 292.027344 97.613281 C 292.027344 79.007812 276.894531 63.863281 258.277344 63.863281 C 239.65625 63.863281 224.527344 79.007812 224.527344 97.613281 C 224.527344 109.050781 236.464844 127.496094 245.5625 139.886719 C 234.78125 141.660156 224.527344 146.023438 224.527344 153.863281 C 224.527344 163.707031 241.503906 168.863281 258.277344 168.863281 C 275.046875 168.863281 292.027344 163.707031 292.027344 153.863281 C 292.027344 146.023438 281.773438 141.660156 270.992188 139.886719 " fill-opacity="1" fill-rule="nonzero"/></g><g clip-path="url(#e562e0af14)"><path fill="#ffffff" d="M 250.777344 266.363281 L 142.027344 266.363281 C 139.960938 266.363281 138.277344 264.675781 138.277344 262.613281 C 138.277344 260.546875 139.960938 258.863281 142.027344 258.863281 L 250.777344 258.863281 C 269.394531 258.863281 284.527344 243.714844 284.527344 225.113281 C 284.527344 206.507812 269.394531 191.363281 250.777344 191.363281 L 153.277344 191.363281 C 130.527344 191.363281 112.027344 172.859375 112.027344 150.113281 C 112.027344 127.363281 130.527344 108.863281 153.277344 108.863281 L 217.027344 108.863281 C 219.089844 108.863281 220.777344 110.546875 220.777344 112.613281 C 220.777344 114.675781 219.089844 116.363281 217.027344 116.363281 L 153.277344 116.363281 C 134.671875 116.363281 119.527344 131.507812 119.527344 150.113281 C 119.527344 168.714844 134.671875 183.863281 153.277344 183.863281 L 250.777344 183.863281 C 273.523438 183.863281 292.027344 202.363281 292.027344 225.113281 C 292.027344 247.859375 273.523438 266.363281 250.777344 266.363281 " fill-opacity="1" fill-rule="nonzero"/></g></svg>