<svg xmlns="http://www.w3.org/2000/svg" xmlns:xlink="http://www.w3.org/1999/xlink" width="500" zoomAndPan="magnify" viewBox="0 0 375 374.999991" height="500" preserveAspectRatio="xMidYMid meet" version="1.0"><defs><clipPath id="798c0fad96"><path d="M 187.5 0 C 83.945312 0 0 83.945312 0 187.5 C 0 291.054688 83.945312 375 187.5 375 C 291.054688 375 375 291.054688 375 187.5 C 375 83.945312 291.054688 0 187.5 0 Z M 187.5 0 " clip-rule="nonzero"/></clipPath><clipPath id="c748f3258d"><path d="M 173.855469 40.300781 L 201.140625 40.300781 L 201.140625 331.015625 L 173.855469 331.015625 Z M 173.855469 40.300781 " clip-rule="nonzero"/></clipPath><clipPath id="18fe71f4bd"><path d="M 173.855469 26.65625 L 201.140625 26.65625 L 201.140625 53.941406 L 173.855469 53.941406 Z M 173.855469 26.65625 " clip-rule="nonzero"/></clipPath><clipPath id="f77ea2585c"><path d="M 187.5 26.65625 C 179.964844 26.65625 173.855469 32.765625 173.855469 40.300781 C 173.855469 47.832031 179.964844 53.941406 187.5 53.941406 C 195.035156 53.941406 201.140625 47.832031 201.140625 40.300781 C 201.140625 32.765625 195.035156 26.65625 187.5 26.65625 Z M 187.5 26.65625 " clip-rule="nonzero"/></clipPath><clipPath id="670fedade9"><path d="M 173.855469 317.375 L 201.140625 317.375 L 201.140625 344.660156 L 173.855469 344.660156 Z M 173.855469 317.375 " clip-rule="nonzero"/></clipPath><clipPath id="ce61f1a2e9"><path d="M 187.5 317.375 C 179.964844 317.375 173.855469 323.480469 173.855469 331.015625 C 173.855469 338.550781 179.964844 344.660156 187.5 344.660156 C 195.035156 344.660156 201.140625 338.550781 201.140625 331.015625 C 201.140625 323.480469 195.035156 317.375 187.5 317.375 Z M 187.5 317.375 " clip-rule="nonzero"/></clipPath><clipPath id="ccc55827f4"><path d="M 70.484375 68.644531 L 304.484375 68.644531 L 304.484375 302.644531 L 70.484375 302.644531 Z M 70.484375 68.644531 " clip-rule="nonzero"/></clipPath></defs><g clip-path="url(#798c0fad96)"><rect x="-37.5" width="450" fill="#000000" y="-37.499999" height="449.999989" fill-opacity="1"/><path stroke-linecap="butt" transform="matrix(0.75, 0, 0, 0.75, 0.0000045, 0)" fill="none" stroke-linejoin="miter" d="M 249.999994 0 C 111.927078 0 -0.000006 111.927084 -0.000006 250 C -0.000006 388.072917 111.927078 500.000001 249.999994 500.000001 C 388.072911 500.000001 499.999995 388.072917 499.999995 250 C 499.999995 111.927084 388.072911 0 249.999994 0 Z M 249.999994 0 " stroke="#ffde59" stroke-width="30" stroke-opacity="1" stroke-miterlimit="4"/></g><g clip-path="url(#c748f3258d)"><path fill="#000000" d="M 173.855469 40.300781 L 201.140625 40.300781 L 201.140625 331.054688 L 173.855469 331.054688 Z M 173.855469 40.300781 " fill-opacity="1" fill-rule="nonzero"/></g><g clip-path="url(#18fe71f4bd)"><g clip-path="url(#f77ea2585c)"><path fill="#000000" d="M 173.855469 26.65625 L 201.140625 26.65625 L 201.140625 53.941406 L 173.855469 53.941406 Z M 173.855469 26.65625 " fill-opacity="1" fill-rule="nonzero"/></g></g><g clip-path="url(#670fedade9)"><g clip-path="url(#ce61f1a2e9)"><path fill="#000000" d="M 173.855469 317.375 L 201.140625 317.375 L 201.140625 344.660156 L 173.855469 344.660156 Z M 173.855469 317.375 " fill-opacity="1" fill-rule="nonzero"/></g></g><g clip-path="url(#ccc55827f4)"><path fill="#ffffff" d="M 96.542969 68.898438 C 88.09375 68.898438 81.214844 75.777344 81.214844 84.226562 L 81.214844 109.777344 L 76.105469 109.777344 C 75.769531 109.769531 75.433594 109.800781 75.097656 109.863281 C 74.765625 109.921875 74.441406 110.019531 74.128906 110.144531 C 73.8125 110.269531 73.515625 110.425781 73.234375 110.613281 C 72.949219 110.796875 72.6875 111.007812 72.445312 111.246094 C 72.203125 111.484375 71.988281 111.742188 71.800781 112.023438 C 71.609375 112.304688 71.449219 112.601562 71.320312 112.914062 C 71.1875 113.226562 71.089844 113.546875 71.023438 113.878906 C 70.957031 114.210938 70.921875 114.546875 70.921875 114.886719 C 70.921875 115.222656 70.957031 115.558594 71.023438 115.890625 C 71.089844 116.222656 71.1875 116.546875 71.320312 116.859375 C 71.449219 117.171875 71.609375 117.46875 71.800781 117.746094 C 71.988281 118.027344 72.203125 118.285156 72.445312 118.523438 C 72.6875 118.761719 72.949219 118.972656 73.234375 119.160156 C 73.515625 119.34375 73.8125 119.5 74.128906 119.628906 C 74.441406 119.753906 74.765625 119.847656 75.097656 119.910156 C 75.433594 119.972656 75.769531 120 76.105469 119.996094 L 96.542969 119.996094 C 97.441406 120.007812 98.285156 119.796875 99.070312 119.363281 C 99.855469 118.929688 100.484375 118.332031 100.957031 117.570312 C 101.363281 118.304688 101.65625 119.097656 101.65625 119.996094 C 101.65625 122.816406 99.367188 125.105469 96.542969 125.105469 L 81.214844 125.105469 L 81.214844 140.433594 L 76.105469 140.433594 C 75.769531 140.429688 75.433594 140.457031 75.097656 140.519531 C 74.765625 140.582031 74.441406 140.675781 74.128906 140.800781 C 73.8125 140.929688 73.515625 141.085938 73.234375 141.269531 C 72.949219 141.457031 72.6875 141.667969 72.445312 141.90625 C 72.203125 142.144531 71.988281 142.402344 71.800781 142.683594 C 71.609375 142.960938 71.449219 143.257812 71.320312 143.570312 C 71.1875 143.882812 71.089844 144.207031 71.023438 144.539062 C 70.957031 144.871094 70.921875 145.207031 70.921875 145.542969 C 70.921875 145.882812 70.957031 146.21875 71.023438 146.550781 C 71.089844 146.882812 71.1875 147.203125 71.320312 147.515625 C 71.449219 147.828125 71.609375 148.125 71.800781 148.40625 C 71.988281 148.6875 72.203125 148.945312 72.445312 149.183594 C 72.6875 149.421875 72.949219 149.632812 73.234375 149.816406 C 73.515625 150.003906 73.8125 150.160156 74.128906 150.285156 C 74.441406 150.410156 74.765625 150.507812 75.097656 150.566406 C 75.433594 150.628906 75.769531 150.660156 76.105469 150.652344 L 96.542969 150.652344 C 97.441406 150.664062 98.285156 150.453125 99.070312 150.023438 C 99.855469 149.589844 100.484375 148.992188 100.957031 148.226562 C 101.363281 148.960938 101.65625 149.757812 101.65625 150.652344 C 101.65625 153.472656 99.367188 155.761719 96.542969 155.761719 L 81.214844 155.761719 L 81.214844 171.09375 L 76.105469 171.09375 C 75.769531 171.085938 75.433594 171.117188 75.097656 171.179688 C 74.765625 171.238281 74.441406 171.335938 74.128906 171.460938 C 73.8125 171.585938 73.515625 171.742188 73.234375 171.929688 C 72.949219 172.113281 72.6875 172.324219 72.445312 172.5625 C 72.203125 172.800781 71.988281 173.058594 71.800781 173.339844 C 71.609375 173.621094 71.449219 173.917969 71.320312 174.230469 C 71.1875 174.542969 71.089844 174.863281 71.023438 175.195312 C 70.957031 175.527344 70.921875 175.863281 70.921875 176.203125 C 70.921875 176.539062 70.957031 176.875 71.023438 177.207031 C 71.089844 177.539062 71.1875 177.863281 71.320312 178.175781 C 71.449219 178.488281 71.609375 178.78125 71.800781 179.0625 C 71.988281 179.34375 72.203125 179.601562 72.445312 179.839844 C 72.6875 180.078125 72.949219 180.289062 73.234375 180.476562 C 73.515625 180.660156 73.8125 180.816406 74.128906 180.945312 C 74.441406 181.070312 74.765625 181.164062 75.097656 181.226562 C 75.433594 181.289062 75.769531 181.316406 76.105469 181.3125 L 96.542969 181.3125 C 97.441406 181.324219 98.285156 181.113281 99.070312 180.679688 C 99.855469 180.246094 100.484375 179.648438 100.957031 178.886719 C 101.363281 179.617188 101.65625 180.414062 101.65625 181.3125 C 101.65625 184.136719 99.367188 186.421875 96.542969 186.421875 L 81.214844 186.421875 L 81.214844 201.75 L 76.105469 201.75 C 75.769531 201.746094 75.433594 201.773438 75.097656 201.835938 C 74.765625 201.898438 74.441406 201.992188 74.128906 202.117188 C 73.8125 202.246094 73.515625 202.402344 73.234375 202.585938 C 72.949219 202.773438 72.6875 202.984375 72.445312 203.222656 C 72.203125 203.457031 71.988281 203.71875 71.800781 204 C 71.609375 204.277344 71.449219 204.574219 71.320312 204.886719 C 71.1875 205.199219 71.089844 205.523438 71.023438 205.855469 C 70.957031 206.1875 70.921875 206.519531 70.921875 206.859375 C 70.921875 207.199219 70.957031 207.535156 71.023438 207.867188 C 71.089844 208.199219 71.1875 208.519531 71.320312 208.832031 C 71.449219 209.144531 71.609375 209.441406 71.800781 209.722656 C 71.988281 210.003906 72.203125 210.261719 72.445312 210.5 C 72.6875 210.738281 72.949219 210.949219 73.234375 211.132812 C 73.515625 211.320312 73.8125 211.476562 74.128906 211.601562 C 74.441406 211.726562 74.765625 211.820312 75.097656 211.882812 C 75.433594 211.945312 75.769531 211.972656 76.105469 211.96875 L 96.542969 211.96875 C 97.441406 211.980469 98.285156 211.769531 99.070312 211.339844 C 99.855469 210.90625 100.484375 210.308594 100.957031 209.542969 C 101.363281 210.277344 101.65625 211.070312 101.65625 211.96875 C 101.65625 214.796875 99.367188 217.078125 96.542969 217.078125 L 81.214844 217.078125 L 81.214844 232.410156 L 76.105469 232.410156 C 75.769531 232.402344 75.433594 232.433594 75.097656 232.496094 C 74.765625 232.554688 74.441406 232.648438 74.128906 232.777344 C 73.8125 232.902344 73.515625 233.058594 73.234375 233.246094 C 72.949219 233.429688 72.6875 233.640625 72.445312 233.878906 C 72.207031 234.117188 71.988281 234.375 71.800781 234.65625 C 71.609375 234.9375 71.449219 235.234375 71.320312 235.546875 C 71.1875 235.859375 71.089844 236.179688 71.023438 236.511719 C 70.957031 236.84375 70.925781 237.179688 70.925781 237.519531 C 70.925781 237.855469 70.957031 238.191406 71.023438 238.523438 C 71.089844 238.855469 71.1875 239.179688 71.320312 239.492188 C 71.449219 239.800781 71.609375 240.097656 71.800781 240.378906 C 71.988281 240.660156 72.207031 240.917969 72.445312 241.15625 C 72.6875 241.394531 72.949219 241.605469 73.234375 241.792969 C 73.515625 241.976562 73.8125 242.132812 74.128906 242.261719 C 74.441406 242.386719 74.765625 242.480469 75.097656 242.542969 C 75.433594 242.605469 75.769531 242.632812 76.105469 242.628906 L 96.542969 242.628906 C 97.441406 242.640625 98.285156 242.429688 99.070312 241.996094 C 99.855469 241.5625 100.484375 240.964844 100.957031 240.203125 C 101.363281 240.933594 101.65625 241.730469 101.65625 242.628906 C 101.65625 245.453125 99.367188 247.738281 96.542969 247.738281 L 81.214844 247.738281 L 81.214844 268.175781 C 81.214844 276.628906 88.09375 283.503906 96.542969 283.503906 L 200.632812 283.503906 C 184.101562 272.523438 173.191406 253.746094 173.191406 232.410156 C 173.191406 228.917969 173.546875 225.519531 174.109375 222.1875 L 122.09375 222.1875 C 123.453125 199.925781 153.503906 203.171875 157.859375 191.628906 C 157.859375 186.847656 158.089844 181.3125 158.089844 181.3125 L 157.859375 181.3125 C 155.984375 180.371094 153.015625 174.378906 152.453125 169.324219 C 150.980469 169.214844 148.660156 167.847656 147.980469 162.429688 C 147.617188 159.523438 149.078125 157.882812 149.957031 157.371094 C 143.003906 142.542969 151.753906 125.105469 175.753906 125.105469 L 178.300781 130.214844 C 195.003906 130.214844 195.742188 151.96875 191.3125 157.371094 C 192.503906 157.691406 193.65625 159.523438 193.289062 162.429688 C 192.609375 167.847656 190.289062 169.214844 188.820312 169.324219 C 188.25 174.382812 183.410156 181.3125 183.410156 181.3125 L 183.410156 191.628906 C 183.914062 192.976562 184.796875 194.097656 185.914062 195.105469 C 197.125 180.527344 214.695312 171.09375 234.507812 171.09375 C 241.683594 171.09375 248.542969 172.390625 254.945312 174.65625 L 254.945312 84.226562 C 254.945312 75.777344 248.066406 68.898438 239.617188 68.898438 Z M 234.507812 181.3125 C 206.347656 181.3125 183.410156 204.25 183.410156 232.410156 C 183.410156 260.566406 206.347656 283.503906 234.507812 283.503906 C 246.75 283.503906 257.996094 279.15625 266.8125 271.9375 L 297.320312 302.445312 L 304.542969 295.222656 L 274.035156 264.714844 C 281.253906 255.898438 285.601562 244.652344 285.601562 232.410156 C 285.601562 204.25 262.664062 181.3125 234.507812 181.3125 Z M 234.507812 191.53125 C 257.144531 191.53125 275.382812 209.773438 275.382812 232.410156 C 275.382812 255.046875 257.144531 273.285156 234.507812 273.285156 C 211.871094 273.285156 193.628906 255.046875 193.628906 232.410156 C 193.628906 209.773438 211.871094 191.53125 234.507812 191.53125 Z M 234.507812 191.53125 " fill-opacity="1" fill-rule="nonzero"/></g></svg>