<svg xmlns="http://www.w3.org/2000/svg" xmlns:xlink="http://www.w3.org/1999/xlink" width="500" zoomAndPan="magnify" viewBox="0 0 375 374.999991" height="500" preserveAspectRatio="xMidYMid meet" version="1.0"><defs><g/></defs><g fill="#000000" fill-opacity="1"><g transform="translate(-7.00167, 269.484892)"><g><path d="M 155.207031 -177.027344 L 109.84375 -112.050781 L 64.976562 -177.027344 C 62.277344 -180.703125 56.882812 -181.6875 53.207031 -178.988281 C 49.527344 -176.292969 48.792969 -171.144531 51.246094 -167.464844 L 103.226562 -93.171875 C 103.714844 -92.191406 104.449219 -91.457031 105.1875 -90.964844 C 108.863281 -88.023438 114.257812 -89.003906 116.957031 -92.925781 L 168.9375 -167.464844 C 171.386719 -171.144531 170.652344 -176.292969 166.972656 -178.988281 C 163.050781 -181.6875 157.902344 -180.703125 155.207031 -177.027344 Z M 36.289062 -5.882812 L 36.289062 -172.125 C 36.289062 -176.78125 32.609375 -180.460938 27.953125 -180.460938 C 23.292969 -180.460938 19.613281 -176.78125 19.613281 -172.125 L 19.613281 -5.882812 C 19.613281 -1.226562 23.292969 2.453125 27.953125 2.453125 C 32.609375 2.453125 36.289062 -1.226562 36.289062 -5.882812 Z M 200.566406 -5.882812 L 200.566406 -172.125 C 200.566406 -176.78125 196.886719 -180.460938 191.984375 -180.460938 C 187.570312 -180.460938 183.890625 -176.78125 183.890625 -172.125 L 183.890625 -5.882812 C 183.890625 -1.226562 187.570312 2.453125 191.984375 2.453125 C 196.886719 2.453125 200.566406 -1.226562 200.566406 -5.882812 Z M 167.21875 -5.882812 L 167.21875 -109.601562 C 167.21875 -114.011719 163.542969 -117.691406 158.882812 -117.691406 C 155.941406 -117.691406 153.488281 -116.21875 152.019531 -114.011719 L 109.84375 -53.941406 L 68.164062 -114.257812 C 65.464844 -117.9375 60.070312 -118.917969 56.394531 -116.21875 C 54.1875 -114.75 52.960938 -112.050781 52.960938 -109.601562 L 52.960938 -5.882812 C 52.960938 -1.226562 56.640625 2.453125 61.050781 2.453125 C 65.957031 2.453125 69.632812 -1.226562 69.632812 -5.882812 L 69.632812 -83.121094 L 103.226562 -34.816406 C 103.714844 -34.082031 104.449219 -33.347656 105.1875 -32.609375 C 108.863281 -30.160156 114.257812 -31.140625 116.957031 -34.816406 L 150.546875 -83.121094 L 150.546875 -5.882812 C 150.546875 -1.226562 154.222656 2.453125 158.882812 2.453125 C 163.542969 2.453125 167.21875 -1.226562 167.21875 -5.882812 Z M 167.21875 -5.882812 "/></g></g></g><g fill="#000000" fill-opacity="1"><g transform="translate(213.423766, 269.484892)"><g><path d="M 36.042969 -5.640625 L 36.042969 -161.335938 L 92.4375 -161.335938 C 103.46875 -161.335938 113.523438 -156.921875 120.878906 -149.566406 C 146.132812 -124.066406 128.480469 -79.441406 92.4375 -79.441406 C 86.308594 -79.441406 81.402344 -72.332031 86.308594 -65.957031 L 131.667969 -0.980469 C 137.550781 7.847656 151.035156 -1.714844 144.90625 -10.542969 L 106.902344 -64.976562 C 116.710938 -67.425781 125.539062 -72.820312 132.648438 -79.933594 C 167.957031 -116.21875 142.699219 -177.761719 92.4375 -177.761719 L 27.953125 -177.761719 C 23.539062 -177.761719 19.613281 -174.085938 19.613281 -169.671875 L 19.613281 -5.640625 C 19.613281 5.148438 36.042969 5.148438 36.042969 -5.640625 Z M 89.738281 -95.871094 C 103.226562 -95.871094 114.503906 -106.414062 114.503906 -120.144531 C 114.503906 -132.648438 104.695312 -145.152344 89.738281 -145.152344 L 60.5625 -145.152344 C 49.773438 -145.152344 49.773438 -128.726562 60.5625 -128.726562 L 89.738281 -128.726562 C 94.398438 -128.726562 98.320312 -125.292969 98.320312 -120.386719 C 98.320312 -110.824219 89.25 -112.050781 81.648438 -112.050781 C 68.40625 -112.050781 68.898438 -96.605469 81.648438 -95.871094 C 84.34375 -95.625 87.53125 -95.871094 89.738281 -95.871094 Z M 104.941406 -10.542969 L 67.425781 -64.238281 C 62.769531 -70.371094 52.46875 -67.917969 52.46875 -59.089844 L 52.46875 -5.640625 C 52.46875 5.148438 68.898438 5.148438 68.898438 -5.640625 L 68.898438 -33.589844 L 91.457031 -0.980469 C 97.832031 7.847656 111.070312 -1.714844 104.941406 -10.542969 Z M 104.941406 -10.542969 "/></g></g></g></svg>