<svg xmlns="http://www.w3.org/2000/svg" xmlns:xlink="http://www.w3.org/1999/xlink" width="500" zoomAndPan="magnify" viewBox="0 0 375 44.999999" height="60" preserveAspectRatio="xMidYMid meet" version="1.0"><defs><clipPath id="28f486f3a9"><path d="M 341.660156 6.53125 L 373.597656 6.53125 L 373.597656 38.46875 L 341.660156 38.46875 Z M 341.660156 6.53125 " clip-rule="nonzero"/></clipPath><clipPath id="4093f0651b"><path d="M 373.597656 22.5 C 373.597656 13.679688 366.449219 6.53125 357.628906 6.53125 C 348.8125 6.53125 341.660156 13.679688 341.660156 22.5 C 341.660156 31.320312 348.8125 38.46875 357.628906 38.46875 C 366.449219 38.46875 373.597656 31.320312 373.597656 22.5 Z M 373.597656 22.5 " clip-rule="nonzero"/></clipPath><clipPath id="6e224eb31e"><path d="M 1.398438 6.53125 L 33.335938 6.53125 L 33.335938 38.46875 L 1.398438 38.46875 Z M 1.398438 6.53125 " clip-rule="nonzero"/></clipPath><clipPath id="29f2d61ad0"><path d="M 33.335938 22.5 C 33.335938 13.679688 26.1875 6.53125 17.367188 6.53125 C 8.546875 6.53125 1.398438 13.679688 1.398438 22.5 C 1.398438 31.320312 8.546875 38.46875 17.367188 38.46875 C 26.1875 38.46875 33.335938 31.320312 33.335938 22.5 Z M 33.335938 22.5 " clip-rule="nonzero"/></clipPath><clipPath id="d164f905d5"><path d="M 199.753906 6.53125 L 231.691406 6.53125 L 231.691406 38.46875 L 199.753906 38.46875 Z M 199.753906 6.53125 " clip-rule="nonzero"/></clipPath><clipPath id="79f4c5124b"><path d="M 231.691406 22.5 C 231.691406 13.679688 224.542969 6.53125 215.722656 6.53125 C 206.902344 6.53125 199.753906 13.679688 199.753906 22.5 C 199.753906 31.320312 206.902344 38.46875 215.722656 38.46875 C 224.542969 38.46875 231.691406 31.320312 231.691406 22.5 Z M 231.691406 22.5 " clip-rule="nonzero"/></clipPath><clipPath id="d9bc0efec9"><path d="M 176.339844 6.53125 L 357.628906 6.53125 L 357.628906 38.46875 L 176.339844 38.46875 Z M 176.339844 6.53125 " clip-rule="nonzero"/></clipPath><clipPath id="21ef3e5896"><path d="M 17.363281 6.527344 L 245.257812 6.527344 L 245.257812 38.464844 L 17.363281 38.464844 Z M 17.363281 6.527344 " clip-rule="nonzero"/></clipPath><clipPath id="891ecfb14b"><path d="M 341.660156 6.53125 L 373.597656 6.53125 L 373.597656 38.46875 L 341.660156 38.46875 Z M 341.660156 6.53125 " clip-rule="nonzero"/></clipPath><clipPath id="35fd8a93e6"><path d="M 373.597656 22.5 C 373.597656 13.679688 366.449219 6.53125 357.628906 6.53125 C 348.8125 6.53125 341.660156 13.679688 341.660156 22.5 C 341.660156 31.320312 348.8125 38.46875 357.628906 38.46875 C 366.449219 38.46875 373.597656 31.320312 373.597656 22.5 Z M 373.597656 22.5 " clip-rule="nonzero"/></clipPath><clipPath id="6d87f6edd7"><path d="M 229.292969 6.53125 L 261.226562 6.53125 L 261.226562 38.46875 L 229.292969 38.46875 Z M 229.292969 6.53125 " clip-rule="nonzero"/></clipPath><clipPath id="f20ba0005d"><path d="M 261.226562 22.5 C 261.226562 13.679688 254.078125 6.53125 245.261719 6.53125 C 236.441406 6.53125 229.292969 13.679688 229.292969 22.5 C 229.292969 31.320312 236.441406 38.46875 245.261719 38.46875 C 254.078125 38.46875 261.226562 31.320312 261.226562 22.5 Z M 261.226562 22.5 " clip-rule="nonzero"/></clipPath></defs><g clip-path="url(#28f486f3a9)"><g clip-path="url(#4093f0651b)"><path fill="#ffde59" d="M 373.597656 6.53125 L 373.597656 38.46875 L 341.660156 38.46875 L 341.660156 6.53125 Z M 373.597656 6.53125 " fill-opacity="1" fill-rule="nonzero"/></g></g><g clip-path="url(#6e224eb31e)"><g clip-path="url(#29f2d61ad0)"><path fill="#ffde59" d="M 33.335938 6.53125 L 33.335938 38.46875 L 1.398438 38.46875 L 1.398438 6.53125 Z M 33.335938 6.53125 " fill-opacity="1" fill-rule="nonzero"/></g></g><g clip-path="url(#d164f905d5)"><g clip-path="url(#79f4c5124b)"><path fill="#ffde59" d="M 231.691406 6.53125 L 231.691406 38.46875 L 199.753906 38.46875 L 199.753906 6.53125 Z M 231.691406 6.53125 " fill-opacity="1" fill-rule="nonzero"/></g></g><g clip-path="url(#d9bc0efec9)"><path fill="#d1b645" d="M 357.628906 6.53125 L 357.628906 38.46875 L 176.371094 38.46875 L 176.371094 6.53125 Z M 357.628906 6.53125 " fill-opacity="1" fill-rule="nonzero"/></g><g clip-path="url(#21ef3e5896)"><path fill="#ffde59" d="M 245.257812 6.527344 L 245.257812 38.464844 L 17.34375 38.464844 L 17.34375 6.527344 Z M 245.257812 6.527344 " fill-opacity="1" fill-rule="nonzero"/></g><g clip-path="url(#891ecfb14b)"><g clip-path="url(#35fd8a93e6)"><path fill="#d1b645" d="M 373.597656 6.53125 L 373.597656 38.46875 L 341.660156 38.46875 L 341.660156 6.53125 Z M 373.597656 6.53125 " fill-opacity="1" fill-rule="nonzero"/></g></g><g clip-path="url(#6d87f6edd7)"><g clip-path="url(#f20ba0005d)"><path fill="#ffde59" d="M 261.226562 6.53125 L 261.226562 38.46875 L 229.292969 38.46875 L 229.292969 6.53125 Z M 261.226562 6.53125 " fill-opacity="1" fill-rule="nonzero"/></g></g></svg>