<svg xmlns="http://www.w3.org/2000/svg" xmlns:xlink="http://www.w3.org/1999/xlink" width="500" zoomAndPan="magnify" viewBox="0 0 375 44.999999" height="60" preserveAspectRatio="xMidYMid meet" version="1.0"><defs><clipPath id="9c466bbdae"><path d="M 341.660156 6.53125 L 373.597656 6.53125 L 373.597656 38.46875 L 341.660156 38.46875 Z M 341.660156 6.53125 " clip-rule="nonzero"/></clipPath><clipPath id="66ce5d62b2"><path d="M 373.597656 22.5 C 373.597656 13.679688 366.449219 6.53125 357.628906 6.53125 C 348.8125 6.53125 341.660156 13.679688 341.660156 22.5 C 341.660156 31.320312 348.8125 38.46875 357.628906 38.46875 C 366.449219 38.46875 373.597656 31.320312 373.597656 22.5 Z M 373.597656 22.5 " clip-rule="nonzero"/></clipPath><clipPath id="f58b77a462"><path d="M 1.398438 6.53125 L 33.335938 6.53125 L 33.335938 38.46875 L 1.398438 38.46875 Z M 1.398438 6.53125 " clip-rule="nonzero"/></clipPath><clipPath id="0a28b18ea5"><path d="M 33.335938 22.5 C 33.335938 13.679688 26.1875 6.53125 17.367188 6.53125 C 8.546875 6.53125 1.398438 13.679688 1.398438 22.5 C 1.398438 31.320312 8.546875 38.46875 17.367188 38.46875 C 26.1875 38.46875 33.335938 31.320312 33.335938 22.5 Z M 33.335938 22.5 " clip-rule="nonzero"/></clipPath><clipPath id="9c7e7a16f9"><path d="M 199.753906 6.53125 L 231.691406 6.53125 L 231.691406 38.46875 L 199.753906 38.46875 Z M 199.753906 6.53125 " clip-rule="nonzero"/></clipPath><clipPath id="445e7050de"><path d="M 231.691406 22.5 C 231.691406 13.679688 224.542969 6.53125 215.722656 6.53125 C 206.902344 6.53125 199.753906 13.679688 199.753906 22.5 C 199.753906 31.320312 206.902344 38.46875 215.722656 38.46875 C 224.542969 38.46875 231.691406 31.320312 231.691406 22.5 Z M 231.691406 22.5 " clip-rule="nonzero"/></clipPath><clipPath id="e78bd788dd"><path d="M 82.449219 6.53125 L 357.625 6.53125 L 357.625 38.464844 L 82.449219 38.464844 Z M 82.449219 6.53125 " clip-rule="nonzero"/></clipPath><clipPath id="7011e1b805"><path d="M 17.363281 6.53125 L 126.027344 6.53125 L 126.027344 38.464844 L 17.363281 38.464844 Z M 17.363281 6.53125 " clip-rule="nonzero"/></clipPath><clipPath id="dce91a931a"><path d="M 341.660156 6.53125 L 373.597656 6.53125 L 373.597656 38.46875 L 341.660156 38.46875 Z M 341.660156 6.53125 " clip-rule="nonzero"/></clipPath><clipPath id="f15da067f7"><path d="M 373.597656 22.5 C 373.597656 13.679688 366.449219 6.53125 357.628906 6.53125 C 348.8125 6.53125 341.660156 13.679688 341.660156 22.5 C 341.660156 31.320312 348.8125 38.46875 357.628906 38.46875 C 366.449219 38.46875 373.597656 31.320312 373.597656 22.5 Z M 373.597656 22.5 " clip-rule="nonzero"/></clipPath><clipPath id="3d9e74e798"><path d="M 110.0625 6.53125 L 142 6.53125 L 142 38.46875 L 110.0625 38.46875 Z M 110.0625 6.53125 " clip-rule="nonzero"/></clipPath><clipPath id="5d2b42886c"><path d="M 142 22.5 C 142 13.679688 134.847656 6.53125 126.03125 6.53125 C 117.210938 6.53125 110.0625 13.679688 110.0625 22.5 C 110.0625 31.320312 117.210938 38.46875 126.03125 38.46875 C 134.847656 38.46875 142 31.320312 142 22.5 Z M 142 22.5 " clip-rule="nonzero"/></clipPath></defs><g clip-path="url(#9c466bbdae)"><g clip-path="url(#66ce5d62b2)"><path fill="#ffde59" d="M 373.597656 6.53125 L 373.597656 38.46875 L 341.660156 38.46875 L 341.660156 6.53125 Z M 373.597656 6.53125 " fill-opacity="1" fill-rule="nonzero"/></g></g><g clip-path="url(#f58b77a462)"><g clip-path="url(#0a28b18ea5)"><path fill="#ffde59" d="M 33.335938 6.53125 L 33.335938 38.46875 L 1.398438 38.46875 L 1.398438 6.53125 Z M 33.335938 6.53125 " fill-opacity="1" fill-rule="nonzero"/></g></g><g clip-path="url(#9c7e7a16f9)"><g clip-path="url(#445e7050de)"><path fill="#ffde59" d="M 231.691406 6.53125 L 231.691406 38.46875 L 199.753906 38.46875 L 199.753906 6.53125 Z M 231.691406 6.53125 " fill-opacity="1" fill-rule="nonzero"/></g></g><g clip-path="url(#e78bd788dd)"><path fill="#d1b645" d="M 357.625 6.53125 L 357.625 38.464844 L 82.433594 38.464844 L 82.433594 6.53125 Z M 357.625 6.53125 " fill-opacity="1" fill-rule="nonzero"/></g><g clip-path="url(#7011e1b805)"><path fill="#ffde59" d="M 126.027344 6.53125 L 126.027344 38.464844 L 17.375 38.464844 L 17.375 6.53125 Z M 126.027344 6.53125 " fill-opacity="1" fill-rule="nonzero"/></g><g clip-path="url(#dce91a931a)"><g clip-path="url(#f15da067f7)"><path fill="#d1b645" d="M 373.597656 6.53125 L 373.597656 38.46875 L 341.660156 38.46875 L 341.660156 6.53125 Z M 373.597656 6.53125 " fill-opacity="1" fill-rule="nonzero"/></g></g><g clip-path="url(#3d9e74e798)"><g clip-path="url(#5d2b42886c)"><path fill="#ffde59" d="M 142 6.53125 L 142 38.46875 L 110.0625 38.46875 L 110.0625 6.53125 Z M 142 6.53125 " fill-opacity="1" fill-rule="nonzero"/></g></g></svg>