<svg xmlns="http://www.w3.org/2000/svg" xmlns:xlink="http://www.w3.org/1999/xlink" width="500" zoomAndPan="magnify" viewBox="0 0 375 44.999999" height="60" preserveAspectRatio="xMidYMid meet" version="1.0"><defs><clipPath id="aceaf96ef8"><path d="M 341.660156 6.53125 L 373.597656 6.53125 L 373.597656 38.46875 L 341.660156 38.46875 Z M 341.660156 6.53125 " clip-rule="nonzero"/></clipPath><clipPath id="7cc38da70e"><path d="M 373.597656 22.5 C 373.597656 13.679688 366.449219 6.53125 357.628906 6.53125 C 348.8125 6.53125 341.660156 13.679688 341.660156 22.5 C 341.660156 31.320312 348.8125 38.46875 357.628906 38.46875 C 366.449219 38.46875 373.597656 31.320312 373.597656 22.5 Z M 373.597656 22.5 " clip-rule="nonzero"/></clipPath><clipPath id="9a4fa7541c"><path d="M 1.398438 6.53125 L 33.335938 6.53125 L 33.335938 38.46875 L 1.398438 38.46875 Z M 1.398438 6.53125 " clip-rule="nonzero"/></clipPath><clipPath id="656e7574eb"><path d="M 33.335938 22.5 C 33.335938 13.679688 26.1875 6.53125 17.367188 6.53125 C 8.546875 6.53125 1.398438 13.679688 1.398438 22.5 C 1.398438 31.320312 8.546875 38.46875 17.367188 38.46875 C 26.1875 38.46875 33.335938 31.320312 33.335938 22.5 Z M 33.335938 22.5 " clip-rule="nonzero"/></clipPath><clipPath id="0c46223408"><path d="M 199.753906 6.53125 L 231.691406 6.53125 L 231.691406 38.46875 L 199.753906 38.46875 Z M 199.753906 6.53125 " clip-rule="nonzero"/></clipPath><clipPath id="ebda8b61a2"><path d="M 231.691406 22.5 C 231.691406 13.679688 224.542969 6.53125 215.722656 6.53125 C 206.902344 6.53125 199.753906 13.679688 199.753906 22.5 C 199.753906 31.320312 206.902344 38.46875 215.722656 38.46875 C 224.542969 38.46875 231.691406 31.320312 231.691406 22.5 Z M 231.691406 22.5 " clip-rule="nonzero"/></clipPath><clipPath id="0e1610f238"><path d="M 82.449219 6.53125 L 357.625 6.53125 L 357.625 38.464844 L 82.449219 38.464844 Z M 82.449219 6.53125 " clip-rule="nonzero"/></clipPath><clipPath id="27a40fdd0c"><path d="M 17.367188 6.53125 L 82.453125 6.53125 L 82.453125 38.46875 L 17.367188 38.46875 Z M 17.367188 6.53125 " clip-rule="nonzero"/></clipPath><clipPath id="138c31e522"><path d="M 341.660156 6.53125 L 373.597656 6.53125 L 373.597656 38.46875 L 341.660156 38.46875 Z M 341.660156 6.53125 " clip-rule="nonzero"/></clipPath><clipPath id="6926159857"><path d="M 373.597656 22.5 C 373.597656 13.679688 366.449219 6.53125 357.628906 6.53125 C 348.8125 6.53125 341.660156 13.679688 341.660156 22.5 C 341.660156 31.320312 348.8125 38.46875 357.628906 38.46875 C 366.449219 38.46875 373.597656 31.320312 373.597656 22.5 Z M 373.597656 22.5 " clip-rule="nonzero"/></clipPath><clipPath id="9b8211e478"><path d="M 66.484375 6.53125 L 98.421875 6.53125 L 98.421875 38.46875 L 66.484375 38.46875 Z M 66.484375 6.53125 " clip-rule="nonzero"/></clipPath><clipPath id="0d4ea697bd"><path d="M 98.421875 22.5 C 98.421875 13.679688 91.273438 6.53125 82.453125 6.53125 C 73.636719 6.53125 66.484375 13.679688 66.484375 22.5 C 66.484375 31.320312 73.636719 38.46875 82.453125 38.46875 C 91.273438 38.46875 98.421875 31.320312 98.421875 22.5 Z M 98.421875 22.5 " clip-rule="nonzero"/></clipPath></defs><g clip-path="url(#aceaf96ef8)"><g clip-path="url(#7cc38da70e)"><path fill="#ffde59" d="M 373.597656 6.53125 L 373.597656 38.46875 L 341.660156 38.46875 L 341.660156 6.53125 Z M 373.597656 6.53125 " fill-opacity="1" fill-rule="nonzero"/></g></g><g clip-path="url(#9a4fa7541c)"><g clip-path="url(#656e7574eb)"><path fill="#ffde59" d="M 33.335938 6.53125 L 33.335938 38.46875 L 1.398438 38.46875 L 1.398438 6.53125 Z M 33.335938 6.53125 " fill-opacity="1" fill-rule="nonzero"/></g></g><g clip-path="url(#0c46223408)"><g clip-path="url(#ebda8b61a2)"><path fill="#ffde59" d="M 231.691406 6.53125 L 231.691406 38.46875 L 199.753906 38.46875 L 199.753906 6.53125 Z M 231.691406 6.53125 " fill-opacity="1" fill-rule="nonzero"/></g></g><g clip-path="url(#0e1610f238)"><path fill="#d1b645" d="M 357.625 6.53125 L 357.625 38.464844 L 82.433594 38.464844 L 82.433594 6.53125 Z M 357.625 6.53125 " fill-opacity="1" fill-rule="nonzero"/></g><g clip-path="url(#27a40fdd0c)"><path fill="#ffde59" d="M 82.453125 6.53125 L 82.453125 38.46875 L 17.335938 38.46875 L 17.335938 6.53125 Z M 82.453125 6.53125 " fill-opacity="1" fill-rule="nonzero"/></g><g clip-path="url(#138c31e522)"><g clip-path="url(#6926159857)"><path fill="#d1b645" d="M 373.597656 6.53125 L 373.597656 38.46875 L 341.660156 38.46875 L 341.660156 6.53125 Z M 373.597656 6.53125 " fill-opacity="1" fill-rule="nonzero"/></g></g><g clip-path="url(#9b8211e478)"><g clip-path="url(#0d4ea697bd)"><path fill="#ffde59" d="M 98.421875 6.53125 L 98.421875 38.46875 L 66.484375 38.46875 L 66.484375 6.53125 Z M 98.421875 6.53125 " fill-opacity="1" fill-rule="nonzero"/></g></g></svg>