<svg xmlns="http://www.w3.org/2000/svg" xmlns:xlink="http://www.w3.org/1999/xlink" width="500" zoomAndPan="magnify" viewBox="0 0 375 44.999999" height="60" preserveAspectRatio="xMidYMid meet" version="1.0"><defs><clipPath id="ddb5706d35"><path d="M 341.660156 6.53125 L 373.597656 6.53125 L 373.597656 38.46875 L 341.660156 38.46875 Z M 341.660156 6.53125 " clip-rule="nonzero"/></clipPath><clipPath id="90ad73fbe5"><path d="M 373.597656 22.5 C 373.597656 13.679688 366.449219 6.53125 357.628906 6.53125 C 348.8125 6.53125 341.660156 13.679688 341.660156 22.5 C 341.660156 31.320312 348.8125 38.46875 357.628906 38.46875 C 366.449219 38.46875 373.597656 31.320312 373.597656 22.5 Z M 373.597656 22.5 " clip-rule="nonzero"/></clipPath><clipPath id="61a79cd596"><path d="M 1.398438 6.53125 L 33.335938 6.53125 L 33.335938 38.46875 L 1.398438 38.46875 Z M 1.398438 6.53125 " clip-rule="nonzero"/></clipPath><clipPath id="826f450e8d"><path d="M 33.335938 22.5 C 33.335938 13.679688 26.1875 6.53125 17.367188 6.53125 C 8.546875 6.53125 1.398438 13.679688 1.398438 22.5 C 1.398438 31.320312 8.546875 38.46875 17.367188 38.46875 C 26.1875 38.46875 33.335938 31.320312 33.335938 22.5 Z M 33.335938 22.5 " clip-rule="nonzero"/></clipPath><clipPath id="f86369522c"><path d="M 199.753906 6.53125 L 231.691406 6.53125 L 231.691406 38.46875 L 199.753906 38.46875 Z M 199.753906 6.53125 " clip-rule="nonzero"/></clipPath><clipPath id="9bc592d3c1"><path d="M 231.691406 22.5 C 231.691406 13.679688 224.542969 6.53125 215.722656 6.53125 C 206.902344 6.53125 199.753906 13.679688 199.753906 22.5 C 199.753906 31.320312 206.902344 38.46875 215.722656 38.46875 C 224.542969 38.46875 231.691406 31.320312 231.691406 22.5 Z M 231.691406 22.5 " clip-rule="nonzero"/></clipPath><clipPath id="1073fb701c"><path d="M 82.449219 6.53125 L 357.625 6.53125 L 357.625 38.464844 L 82.449219 38.464844 Z M 82.449219 6.53125 " clip-rule="nonzero"/></clipPath><clipPath id="e1cdcf6385"><path d="M 17.367188 6.53125 L 247.65625 6.53125 L 247.65625 38.464844 L 17.367188 38.464844 Z M 17.367188 6.53125 " clip-rule="nonzero"/></clipPath><clipPath id="b524721562"><path d="M 341.660156 6.53125 L 373.597656 6.53125 L 373.597656 38.46875 L 341.660156 38.46875 Z M 341.660156 6.53125 " clip-rule="nonzero"/></clipPath><clipPath id="2f6ea70ce2"><path d="M 373.597656 22.5 C 373.597656 13.679688 366.449219 6.53125 357.628906 6.53125 C 348.8125 6.53125 341.660156 13.679688 341.660156 22.5 C 341.660156 31.320312 348.8125 38.46875 357.628906 38.46875 C 366.449219 38.46875 373.597656 31.320312 373.597656 22.5 Z M 373.597656 22.5 " clip-rule="nonzero"/></clipPath><clipPath id="b5e4d355ba"><path d="M 231.691406 6.53125 L 263.625 6.53125 L 263.625 38.46875 L 231.691406 38.46875 Z M 231.691406 6.53125 " clip-rule="nonzero"/></clipPath><clipPath id="110d2acb30"><path d="M 263.625 22.5 C 263.625 13.679688 256.476562 6.53125 247.65625 6.53125 C 238.839844 6.53125 231.691406 13.679688 231.691406 22.5 C 231.691406 31.320312 238.839844 38.46875 247.65625 38.46875 C 256.476562 38.46875 263.625 31.320312 263.625 22.5 Z M 263.625 22.5 " clip-rule="nonzero"/></clipPath></defs><g clip-path="url(#ddb5706d35)"><g clip-path="url(#90ad73fbe5)"><path fill="#ffde59" d="M 373.597656 6.53125 L 373.597656 38.46875 L 341.660156 38.46875 L 341.660156 6.53125 Z M 373.597656 6.53125 " fill-opacity="1" fill-rule="nonzero"/></g></g><g clip-path="url(#61a79cd596)"><g clip-path="url(#826f450e8d)"><path fill="#ffde59" d="M 33.335938 6.53125 L 33.335938 38.46875 L 1.398438 38.46875 L 1.398438 6.53125 Z M 33.335938 6.53125 " fill-opacity="1" fill-rule="nonzero"/></g></g><g clip-path="url(#f86369522c)"><g clip-path="url(#9bc592d3c1)"><path fill="#ffde59" d="M 231.691406 6.53125 L 231.691406 38.46875 L 199.753906 38.46875 L 199.753906 6.53125 Z M 231.691406 6.53125 " fill-opacity="1" fill-rule="nonzero"/></g></g><g clip-path="url(#1073fb701c)"><path fill="#d1b645" d="M 357.625 6.53125 L 357.625 38.464844 L 82.433594 38.464844 L 82.433594 6.53125 Z M 357.625 6.53125 " fill-opacity="1" fill-rule="nonzero"/></g><g clip-path="url(#e1cdcf6385)"><path fill="#ffde59" d="M 247.65625 6.53125 L 247.65625 38.464844 L 17.375 38.464844 L 17.375 6.53125 Z M 247.65625 6.53125 " fill-opacity="1" fill-rule="nonzero"/></g><g clip-path="url(#b524721562)"><g clip-path="url(#2f6ea70ce2)"><path fill="#d1b645" d="M 373.597656 6.53125 L 373.597656 38.46875 L 341.660156 38.46875 L 341.660156 6.53125 Z M 373.597656 6.53125 " fill-opacity="1" fill-rule="nonzero"/></g></g><g clip-path="url(#b5e4d355ba)"><g clip-path="url(#110d2acb30)"><path fill="#ffde59" d="M 263.625 6.53125 L 263.625 38.46875 L 231.691406 38.46875 L 231.691406 6.53125 Z M 263.625 6.53125 " fill-opacity="1" fill-rule="nonzero"/></g></g></svg>