<svg xmlns="http://www.w3.org/2000/svg" xmlns:xlink="http://www.w3.org/1999/xlink" width="500" zoomAndPan="magnify" viewBox="0 0 375 44.999999" height="60" preserveAspectRatio="xMidYMid meet" version="1.0"><defs><clipPath id="aa0a17c1e8"><path d="M 341.660156 6.53125 L 373.597656 6.53125 L 373.597656 38.46875 L 341.660156 38.46875 Z M 341.660156 6.53125 " clip-rule="nonzero"/></clipPath><clipPath id="73af286f49"><path d="M 373.597656 22.5 C 373.597656 13.679688 366.449219 6.53125 357.628906 6.53125 C 348.8125 6.53125 341.660156 13.679688 341.660156 22.5 C 341.660156 31.320312 348.8125 38.46875 357.628906 38.46875 C 366.449219 38.46875 373.597656 31.320312 373.597656 22.5 Z M 373.597656 22.5 " clip-rule="nonzero"/></clipPath><clipPath id="46d77a0458"><path d="M 1.398438 6.53125 L 33.335938 6.53125 L 33.335938 38.46875 L 1.398438 38.46875 Z M 1.398438 6.53125 " clip-rule="nonzero"/></clipPath><clipPath id="2cb13ec327"><path d="M 33.335938 22.5 C 33.335938 13.679688 26.1875 6.53125 17.367188 6.53125 C 8.546875 6.53125 1.398438 13.679688 1.398438 22.5 C 1.398438 31.320312 8.546875 38.46875 17.367188 38.46875 C 26.1875 38.46875 33.335938 31.320312 33.335938 22.5 Z M 33.335938 22.5 " clip-rule="nonzero"/></clipPath><clipPath id="8d97f6272d"><path d="M 199.753906 6.53125 L 231.691406 6.53125 L 231.691406 38.46875 L 199.753906 38.46875 Z M 199.753906 6.53125 " clip-rule="nonzero"/></clipPath><clipPath id="ce9dd89770"><path d="M 231.691406 22.5 C 231.691406 13.679688 224.542969 6.53125 215.722656 6.53125 C 206.902344 6.53125 199.753906 13.679688 199.753906 22.5 C 199.753906 31.320312 206.902344 38.46875 215.722656 38.46875 C 224.542969 38.46875 231.691406 31.320312 231.691406 22.5 Z M 231.691406 22.5 " clip-rule="nonzero"/></clipPath><clipPath id="eda963b8ea"><path d="M 82.449219 6.53125 L 357.625 6.53125 L 357.625 38.464844 L 82.449219 38.464844 Z M 82.449219 6.53125 " clip-rule="nonzero"/></clipPath><clipPath id="1a19dac9c2"><path d="M 17.367188 6.53125 L 183.789062 6.53125 L 183.789062 38.46875 L 17.367188 38.46875 Z M 17.367188 6.53125 " clip-rule="nonzero"/></clipPath><clipPath id="7154cf7bd9"><path d="M 341.660156 6.53125 L 373.597656 6.53125 L 373.597656 38.46875 L 341.660156 38.46875 Z M 341.660156 6.53125 " clip-rule="nonzero"/></clipPath><clipPath id="ecf929d836"><path d="M 373.597656 22.5 C 373.597656 13.679688 366.449219 6.53125 357.628906 6.53125 C 348.8125 6.53125 341.660156 13.679688 341.660156 22.5 C 341.660156 31.320312 348.8125 38.46875 357.628906 38.46875 C 366.449219 38.46875 373.597656 31.320312 373.597656 22.5 Z M 373.597656 22.5 " clip-rule="nonzero"/></clipPath><clipPath id="3c407367aa"><path d="M 167.820312 6.53125 L 199.753906 6.53125 L 199.753906 38.46875 L 167.820312 38.46875 Z M 167.820312 6.53125 " clip-rule="nonzero"/></clipPath><clipPath id="6a4f6f834d"><path d="M 199.753906 22.5 C 199.753906 13.679688 192.605469 6.53125 183.789062 6.53125 C 174.96875 6.53125 167.820312 13.679688 167.820312 22.5 C 167.820312 31.320312 174.96875 38.46875 183.789062 38.46875 C 192.605469 38.46875 199.753906 31.320312 199.753906 22.5 Z M 199.753906 22.5 " clip-rule="nonzero"/></clipPath></defs><g clip-path="url(#aa0a17c1e8)"><g clip-path="url(#73af286f49)"><path fill="#ffde59" d="M 373.597656 6.53125 L 373.597656 38.46875 L 341.660156 38.46875 L 341.660156 6.53125 Z M 373.597656 6.53125 " fill-opacity="1" fill-rule="nonzero"/></g></g><g clip-path="url(#46d77a0458)"><g clip-path="url(#2cb13ec327)"><path fill="#ffde59" d="M 33.335938 6.53125 L 33.335938 38.46875 L 1.398438 38.46875 L 1.398438 6.53125 Z M 33.335938 6.53125 " fill-opacity="1" fill-rule="nonzero"/></g></g><g clip-path="url(#8d97f6272d)"><g clip-path="url(#ce9dd89770)"><path fill="#ffde59" d="M 231.691406 6.53125 L 231.691406 38.46875 L 199.753906 38.46875 L 199.753906 6.53125 Z M 231.691406 6.53125 " fill-opacity="1" fill-rule="nonzero"/></g></g><g clip-path="url(#eda963b8ea)"><path fill="#d1b645" d="M 357.625 6.53125 L 357.625 38.464844 L 82.433594 38.464844 L 82.433594 6.53125 Z M 357.625 6.53125 " fill-opacity="1" fill-rule="nonzero"/></g><g clip-path="url(#1a19dac9c2)"><path fill="#ffde59" d="M 183.789062 6.53125 L 183.789062 38.46875 L 17.375 38.46875 L 17.375 6.53125 Z M 183.789062 6.53125 " fill-opacity="1" fill-rule="nonzero"/></g><g clip-path="url(#7154cf7bd9)"><g clip-path="url(#ecf929d836)"><path fill="#d1b645" d="M 373.597656 6.53125 L 373.597656 38.46875 L 341.660156 38.46875 L 341.660156 6.53125 Z M 373.597656 6.53125 " fill-opacity="1" fill-rule="nonzero"/></g></g><g clip-path="url(#3c407367aa)"><g clip-path="url(#6a4f6f834d)"><path fill="#ffde59" d="M 199.753906 6.53125 L 199.753906 38.46875 L 167.820312 38.46875 L 167.820312 6.53125 Z M 199.753906 6.53125 " fill-opacity="1" fill-rule="nonzero"/></g></g></svg>