<svg xmlns="http://www.w3.org/2000/svg" xmlns:xlink="http://www.w3.org/1999/xlink" width="500" zoomAndPan="magnify" viewBox="0 0 375 44.999999" height="60" preserveAspectRatio="xMidYMid meet" version="1.0"><defs><clipPath id="f0138f7435"><path d="M 341.660156 6.53125 L 373.597656 6.53125 L 373.597656 38.46875 L 341.660156 38.46875 Z M 341.660156 6.53125 " clip-rule="nonzero"/></clipPath><clipPath id="c7eee91e80"><path d="M 373.597656 22.5 C 373.597656 13.679688 366.449219 6.53125 357.628906 6.53125 C 348.8125 6.53125 341.660156 13.679688 341.660156 22.5 C 341.660156 31.320312 348.8125 38.46875 357.628906 38.46875 C 366.449219 38.46875 373.597656 31.320312 373.597656 22.5 Z M 373.597656 22.5 " clip-rule="nonzero"/></clipPath><clipPath id="69d4d637f7"><path d="M 1.398438 6.53125 L 33.335938 6.53125 L 33.335938 38.46875 L 1.398438 38.46875 Z M 1.398438 6.53125 " clip-rule="nonzero"/></clipPath><clipPath id="fcb0ab9d6e"><path d="M 33.335938 22.5 C 33.335938 13.679688 26.1875 6.53125 17.367188 6.53125 C 8.546875 6.53125 1.398438 13.679688 1.398438 22.5 C 1.398438 31.320312 8.546875 38.46875 17.367188 38.46875 C 26.1875 38.46875 33.335938 31.320312 33.335938 22.5 Z M 33.335938 22.5 " clip-rule="nonzero"/></clipPath><clipPath id="7c78d4da22"><path d="M 199.753906 6.53125 L 231.691406 6.53125 L 231.691406 38.46875 L 199.753906 38.46875 Z M 199.753906 6.53125 " clip-rule="nonzero"/></clipPath><clipPath id="e83896ff2e"><path d="M 231.691406 22.5 C 231.691406 13.679688 224.542969 6.53125 215.722656 6.53125 C 206.902344 6.53125 199.753906 13.679688 199.753906 22.5 C 199.753906 31.320312 206.902344 38.46875 215.722656 38.46875 C 224.542969 38.46875 231.691406 31.320312 231.691406 22.5 Z M 231.691406 22.5 " clip-rule="nonzero"/></clipPath><clipPath id="a1bd46d12a"><path d="M 82.449219 6.53125 L 357.625 6.53125 L 357.625 38.464844 L 82.449219 38.464844 Z M 82.449219 6.53125 " clip-rule="nonzero"/></clipPath><clipPath id="b51e3caf1e"><path d="M 17.367188 6.53125 L 337.640625 6.53125 L 337.640625 38.46875 L 17.367188 38.46875 Z M 17.367188 6.53125 " clip-rule="nonzero"/></clipPath><clipPath id="956a398fa2"><path d="M 341.660156 6.53125 L 373.597656 6.53125 L 373.597656 38.46875 L 341.660156 38.46875 Z M 341.660156 6.53125 " clip-rule="nonzero"/></clipPath><clipPath id="17c3fd9354"><path d="M 373.597656 22.5 C 373.597656 13.679688 366.449219 6.53125 357.628906 6.53125 C 348.8125 6.53125 341.660156 13.679688 341.660156 22.5 C 341.660156 31.320312 348.8125 38.46875 357.628906 38.46875 C 366.449219 38.46875 373.597656 31.320312 373.597656 22.5 Z M 373.597656 22.5 " clip-rule="nonzero"/></clipPath><clipPath id="27666addf2"><path d="M 321.671875 6.53125 L 353.609375 6.53125 L 353.609375 38.46875 L 321.671875 38.46875 Z M 321.671875 6.53125 " clip-rule="nonzero"/></clipPath><clipPath id="76f4780df2"><path d="M 353.609375 22.5 C 353.609375 13.679688 346.460938 6.53125 337.640625 6.53125 C 328.824219 6.53125 321.671875 13.679688 321.671875 22.5 C 321.671875 31.320312 328.824219 38.46875 337.640625 38.46875 C 346.460938 38.46875 353.609375 31.320312 353.609375 22.5 Z M 353.609375 22.5 " clip-rule="nonzero"/></clipPath></defs><g clip-path="url(#f0138f7435)"><g clip-path="url(#c7eee91e80)"><path fill="#ffde59" d="M 373.597656 6.53125 L 373.597656 38.46875 L 341.660156 38.46875 L 341.660156 6.53125 Z M 373.597656 6.53125 " fill-opacity="1" fill-rule="nonzero"/></g></g><g clip-path="url(#69d4d637f7)"><g clip-path="url(#fcb0ab9d6e)"><path fill="#ffde59" d="M 33.335938 6.53125 L 33.335938 38.46875 L 1.398438 38.46875 L 1.398438 6.53125 Z M 33.335938 6.53125 " fill-opacity="1" fill-rule="nonzero"/></g></g><g clip-path="url(#7c78d4da22)"><g clip-path="url(#e83896ff2e)"><path fill="#ffde59" d="M 231.691406 6.53125 L 231.691406 38.46875 L 199.753906 38.46875 L 199.753906 6.53125 Z M 231.691406 6.53125 " fill-opacity="1" fill-rule="nonzero"/></g></g><g clip-path="url(#a1bd46d12a)"><path fill="#d1b645" d="M 357.625 6.53125 L 357.625 38.464844 L 82.433594 38.464844 L 82.433594 6.53125 Z M 357.625 6.53125 " fill-opacity="1" fill-rule="nonzero"/></g><g clip-path="url(#b51e3caf1e)"><path fill="#ffde59" d="M 337.640625 6.53125 L 337.640625 38.46875 L 17.417969 38.46875 L 17.417969 6.53125 Z M 337.640625 6.53125 " fill-opacity="1" fill-rule="nonzero"/></g><g clip-path="url(#956a398fa2)"><g clip-path="url(#17c3fd9354)"><path fill="#d1b645" d="M 373.597656 6.53125 L 373.597656 38.46875 L 341.660156 38.46875 L 341.660156 6.53125 Z M 373.597656 6.53125 " fill-opacity="1" fill-rule="nonzero"/></g></g><g clip-path="url(#27666addf2)"><g clip-path="url(#76f4780df2)"><path fill="#ffde59" d="M 353.609375 6.53125 L 353.609375 38.46875 L 321.671875 38.46875 L 321.671875 6.53125 Z M 353.609375 6.53125 " fill-opacity="1" fill-rule="nonzero"/></g></g></svg>