<svg xmlns="http://www.w3.org/2000/svg" xmlns:xlink="http://www.w3.org/1999/xlink" width="500" zoomAndPan="magnify" viewBox="0 0 375 374.999991" height="500" preserveAspectRatio="xMidYMid meet" version="1.0"><defs><clipPath id="781921508c"><path d="M 187.5 0 C 83.945312 0 0 83.945312 0 187.5 C 0 291.054688 83.945312 375 187.5 375 C 291.054688 375 375 291.054688 375 187.5 C 375 83.945312 291.054688 0 187.5 0 Z M 187.5 0 " clip-rule="nonzero"/></clipPath><clipPath id="6eaebef5b0"><path d="M 173.855469 40.300781 L 201.140625 40.300781 L 201.140625 331.015625 L 173.855469 331.015625 Z M 173.855469 40.300781 " clip-rule="nonzero"/></clipPath><clipPath id="fbbe58d573"><path d="M 173.855469 26.65625 L 201.140625 26.65625 L 201.140625 53.941406 L 173.855469 53.941406 Z M 173.855469 26.65625 " clip-rule="nonzero"/></clipPath><clipPath id="1232fdab15"><path d="M 187.5 26.65625 C 179.964844 26.65625 173.855469 32.765625 173.855469 40.300781 C 173.855469 47.832031 179.964844 53.941406 187.5 53.941406 C 195.035156 53.941406 201.140625 47.832031 201.140625 40.300781 C 201.140625 32.765625 195.035156 26.65625 187.5 26.65625 Z M 187.5 26.65625 " clip-rule="nonzero"/></clipPath><clipPath id="675523390b"><path d="M 173.855469 317.375 L 201.140625 317.375 L 201.140625 344.660156 L 173.855469 344.660156 Z M 173.855469 317.375 " clip-rule="nonzero"/></clipPath><clipPath id="5ce67ef1da"><path d="M 187.5 317.375 C 179.964844 317.375 173.855469 323.480469 173.855469 331.015625 C 173.855469 338.550781 179.964844 344.660156 187.5 344.660156 C 195.035156 344.660156 201.140625 338.550781 201.140625 331.015625 C 201.140625 323.480469 195.035156 317.375 187.5 317.375 Z M 187.5 317.375 " clip-rule="nonzero"/></clipPath><clipPath id="24decc4b95"><path d="M 75.734375 73.484375 L 309.734375 73.484375 L 309.734375 307.484375 L 75.734375 307.484375 Z M 75.734375 73.484375 " clip-rule="nonzero"/></clipPath></defs><g clip-path="url(#781921508c)"><rect x="-37.5" width="450" fill="#000000" y="-37.499999" height="449.999989" fill-opacity="1"/><path stroke-linecap="butt" transform="matrix(0.75, 0, 0, 0.75, 0.0000045, 0)" fill="none" stroke-linejoin="miter" d="M 249.999994 0 C 111.927078 0 -0.000006 111.927084 -0.000006 250 C -0.000006 388.072917 111.927078 500.000001 249.999994 500.000001 C 388.072911 500.000001 499.999995 388.072917 499.999995 250 C 499.999995 111.927084 388.072911 0 249.999994 0 Z M 249.999994 0 " stroke="#ffde59" stroke-width="30" stroke-opacity="1" stroke-miterlimit="4"/></g><g clip-path="url(#6eaebef5b0)"><path fill="#000000" d="M 173.855469 40.300781 L 201.140625 40.300781 L 201.140625 331.054688 L 173.855469 331.054688 Z M 173.855469 40.300781 " fill-opacity="1" fill-rule="nonzero"/></g><g clip-path="url(#fbbe58d573)"><g clip-path="url(#1232fdab15)"><path fill="#000000" d="M 173.855469 26.65625 L 201.140625 26.65625 L 201.140625 53.941406 L 173.855469 53.941406 Z M 173.855469 26.65625 " fill-opacity="1" fill-rule="nonzero"/></g></g><g clip-path="url(#675523390b)"><g clip-path="url(#5ce67ef1da)"><path fill="#000000" d="M 173.855469 317.375 L 201.140625 317.375 L 201.140625 344.660156 L 173.855469 344.660156 Z M 173.855469 317.375 " fill-opacity="1" fill-rule="nonzero"/></g></g><path fill="#ffffff" d="M 248.835938 141.339844 L 286.230469 149.730469 C 286.410156 149.730469 286.777344 149.730469 286.957031 149.730469 C 288.601562 149.730469 290.058594 148.636719 290.425781 146.8125 C 290.789062 144.804688 289.695312 142.980469 287.6875 142.433594 L 250.296875 134.042969 C 248.289062 133.679688 246.464844 134.773438 245.917969 136.78125 C 245.734375 138.96875 246.828125 140.976562 248.835938 141.339844 Z M 248.835938 141.339844 " fill-opacity="1" fill-rule="nonzero"/><path fill="#ffffff" d="M 242.085938 154.472656 C 241.722656 156.480469 242.816406 158.304688 244.824219 158.851562 L 282.214844 167.242188 C 282.398438 167.242188 282.761719 167.242188 282.945312 167.242188 C 284.585938 167.242188 286.046875 166.144531 286.410156 164.324219 C 286.777344 162.316406 285.683594 160.492188 283.675781 159.945312 L 246.28125 151.554688 C 244.457031 151.371094 242.453125 152.648438 242.085938 154.472656 Z M 242.085938 154.472656 " fill-opacity="1" fill-rule="nonzero"/><path fill="#ffffff" d="M 237.890625 171.984375 C 237.527344 173.988281 238.621094 175.8125 240.628906 176.359375 L 278.019531 184.75 C 278.203125 184.75 278.566406 184.75 278.75 184.75 C 280.390625 184.75 281.851562 183.65625 282.214844 181.832031 C 282.582031 179.828125 281.488281 178.003906 279.480469 177.457031 L 242.085938 169.066406 C 240.261719 168.882812 238.4375 170.160156 237.890625 171.984375 Z M 237.890625 171.984375 " fill-opacity="1" fill-rule="nonzero"/><path fill="#ffffff" d="M 233.878906 189.675781 C 233.515625 191.683594 234.609375 193.507812 236.613281 194.054688 L 274.007812 202.445312 C 274.191406 202.445312 274.554688 202.445312 274.738281 202.445312 C 276.378906 202.445312 277.839844 201.351562 278.203125 199.527344 C 278.566406 197.519531 277.472656 195.695312 275.46875 195.148438 L 238.257812 186.941406 C 236.25 186.394531 234.242188 187.671875 233.878906 189.675781 Z M 233.878906 189.675781 " fill-opacity="1" fill-rule="nonzero"/><path fill="#ffffff" d="M 235.703125 238.011719 L 260.691406 243.667969 C 260.875 243.667969 261.238281 243.667969 261.421875 243.667969 C 263.0625 243.667969 264.523438 242.574219 264.886719 240.75 C 265.253906 238.742188 264.15625 236.917969 262.152344 236.371094 L 224.941406 227.980469 L 231.324219 232.542969 C 233.515625 234 234.792969 235.824219 235.703125 238.011719 Z M 235.703125 238.011719 " fill-opacity="1" fill-rule="nonzero"/><path fill="#ffffff" d="M 258.140625 254.066406 L 236.25 249.140625 L 236.25 256.617188 L 256.679688 261.179688 C 256.863281 261.179688 257.226562 261.179688 257.410156 261.179688 C 259.050781 261.179688 260.511719 260.085938 260.875 258.261719 C 261.421875 256.4375 260.144531 254.613281 258.140625 254.066406 Z M 258.140625 254.066406 " fill-opacity="1" fill-rule="nonzero"/><path fill="#ffffff" d="M 218.011719 215.578125 L 264.707031 226.15625 C 264.886719 226.15625 265.253906 226.15625 265.433594 226.15625 C 267.078125 226.15625 268.535156 225.0625 268.902344 223.238281 C 269.265625 221.230469 268.171875 219.40625 266.164062 218.859375 L 217.828125 207.917969 L 217.828125 215.578125 Z M 218.011719 215.578125 " fill-opacity="1" fill-rule="nonzero"/><path fill="#ffffff" d="M 211.078125 114.34375 C 207.796875 113.613281 204.695312 113.980469 201.777344 114.890625 C 202.871094 116.898438 203.417969 119.269531 203.417969 121.640625 L 203.417969 122.003906 C 204.695312 121.457031 205.972656 121.09375 207.429688 121.09375 C 208.160156 121.09375 208.890625 121.09375 209.4375 121.273438 C 211.808594 121.824219 213.816406 123.28125 215.089844 125.289062 C 216.367188 127.292969 216.734375 129.664062 216.1875 132.035156 C 215.273438 136.050781 211.625 138.785156 207.429688 138.96875 L 210.53125 140.0625 C 212.539062 140.792969 214.363281 142.25 215.640625 143.894531 C 219.285156 141.703125 222.207031 138.054688 223.117188 133.679688 C 224.03125 129.484375 223.300781 125.105469 221.109375 121.457031 C 219.105469 117.808594 215.457031 115.253906 211.078125 114.34375 Z M 211.078125 114.34375 " fill-opacity="1" fill-rule="nonzero"/><path fill="#ffffff" d="M 218.011719 156.480469 L 218.011719 164.324219 C 219.285156 165.050781 220.5625 166.144531 221.292969 167.421875 C 222.570312 169.429688 222.933594 171.800781 222.386719 174.171875 L 218.011719 193.324219 L 218.011719 200.804688 L 220.015625 201.167969 C 220.199219 201.167969 220.5625 201.167969 220.746094 201.167969 C 222.386719 201.167969 223.847656 200.074219 224.210938 198.433594 L 229.5 175.632812 C 230.414062 171.4375 229.683594 167.058594 227.496094 163.410156 C 225.304688 160.128906 222.023438 157.574219 218.011719 156.480469 Z M 218.011719 156.480469 " fill-opacity="1" fill-rule="nonzero"/><g clip-path="url(#24decc4b95)"><path fill="#ffffff" d="M 80.476562 268.109375 L 186.273438 306.777344 C 187.183594 307.144531 187.914062 307.144531 188.824219 307.144531 C 190.285156 307.144531 191.742188 306.597656 193.019531 305.867188 C 194.84375 304.589844 196.121094 302.402344 196.121094 300.210938 L 196.121094 121.640625 C 196.121094 118.539062 194.296875 115.804688 191.378906 114.707031 L 99.265625 81.144531 L 217.28125 81.144531 L 217.28125 95.375 L 236.25 95.375 L 236.25 105.042969 L 179.523438 92.273438 C 178.792969 92.089844 178.0625 92.089844 177.152344 92.089844 C 174.960938 92.089844 172.957031 92.636719 171.316406 93.730469 C 169.671875 94.828125 168.214844 96.285156 167.300781 98.292969 L 174.234375 100.847656 C 174.960938 99.933594 176.058594 99.386719 177.152344 99.386719 C 177.515625 99.386719 177.699219 99.386719 178.0625 99.386719 L 299.179688 126.746094 C 301.1875 127.113281 302.460938 129.117188 301.914062 131.125 L 265.980469 285.4375 L 236.25 278.6875 C 236.25 281.242188 235.15625 283.796875 233.515625 285.621094 L 264.339844 292.550781 C 264.886719 292.734375 265.433594 292.734375 265.980469 292.734375 C 269.265625 292.734375 272.367188 290.363281 273.097656 287.078125 L 309.03125 132.765625 C 309.757812 129.847656 309.210938 126.929688 307.570312 124.558594 C 306.109375 122.003906 303.558594 120.363281 300.640625 119.632812 L 243.546875 106.867188 L 243.546875 95.554688 C 243.546875 91.542969 240.261719 88.261719 236.25 88.261719 L 224.578125 88.261719 L 224.578125 81.144531 C 224.578125 77.132812 221.292969 73.851562 217.28125 73.851562 L 83.03125 73.851562 C 79.019531 73.851562 75.734375 77.132812 75.734375 81.144531 L 75.734375 81.875 C 75.734375 82.242188 75.734375 82.605469 75.734375 82.96875 L 75.734375 261.359375 C 75.734375 264.460938 77.742188 267.199219 80.476562 268.109375 Z M 80.476562 268.109375 " fill-opacity="1" fill-rule="nonzero"/></g><path fill="#ffffff" d="M 207.066406 296.382812 C 207.796875 296.382812 208.523438 296.199219 209.074219 295.835938 C 210.167969 295.105469 210.714844 294.011719 210.714844 292.734375 L 210.714844 282.15625 L 225.304688 282.15625 C 227.3125 282.15625 228.953125 280.511719 228.953125 278.507812 L 228.953125 241.660156 C 228.953125 240.382812 228.40625 239.289062 227.3125 238.742188 L 210.714844 227.070312 L 210.714844 150.460938 C 210.714844 149 209.800781 147.542969 208.34375 146.992188 L 203.417969 145.171875 L 203.417969 295.105469 L 205.605469 296.015625 C 206.152344 296.382812 206.519531 296.382812 207.066406 296.382812 Z M 207.066406 296.382812 " fill-opacity="1" fill-rule="nonzero"/></svg>